<svg width="30" height="30" viewBox="0 0 30 30" fill="none" xmlns="http://www.w3.org/2000/svg">
<rect width="30" height="30" rx="5" fill="#0A0A0A"/>
<path d="M14.43 24.18C10.3052 24.18 8.24287 24.18 6.961 22.8981C5.68 21.618 5.68 19.5547 5.68 15.43C5.68 11.3052 5.68 9.24287 6.961 7.961C8.24375 6.68 10.3052 6.68 14.43 6.68C15.6541 6.68 16.6962 6.68 17.5905 6.71325C16.9323 7.46499 16.5845 8.43884 16.6176 9.43746C16.6507 10.4361 17.0622 11.3848 17.7687 12.0913C18.4752 12.7978 19.4239 13.2093 20.4225 13.2424C21.4212 13.2755 22.395 12.9277 23.1467 12.2695C23.18 13.1637 23.18 14.2059 23.18 15.43C23.18 19.5547 23.18 21.6171 21.8981 22.8981C20.618 24.18 18.5547 24.18 14.43 24.18Z" fill="#28AB70"/>
<path d="M23.25 9.375C23.25 10.0712 22.9734 10.7389 22.4812 11.2312C21.9889 11.7234 21.3212 12 20.625 12C19.9288 12 19.2611 11.7234 18.7688 11.2312C18.2766 10.7389 18 10.0712 18 9.375C18 8.67881 18.2766 8.01113 18.7688 7.51884C19.2611 7.02656 19.9288 6.75 20.625 6.75C21.3212 6.75 21.9889 7.02656 22.4812 7.51884C22.9734 8.01113 23.25 8.67881 23.25 9.375Z" fill="#E2E2E2"/>
</svg>
