<svg width="302" height="200" viewBox="0 0 302 200" fill="none" xmlns="http://www.w3.org/2000/svg">
<rect x="0.5" y="0.5" width="301" height="59" rx="10.5" stroke="#1C1C1F"/>
<rect x="1" y="1" width="300" height="58" rx="10" fill="#0A0A0A"/>
<path d="M45.1222 49L42.3331 38.8182H43.2777L45.5845 47.5732H45.6641L47.9709 38.8182H49.0447L51.3516 47.5732H51.4311L53.7379 38.8182H54.6875L51.8984 49H50.9041L48.5426 40.3643H48.478L46.1165 49H45.1222ZM58.5604 49.1591C57.8478 49.1591 57.2313 48.9934 56.7109 48.6619C56.1906 48.3272 55.7879 47.8648 55.5028 47.2749C55.2211 46.6816 55.0803 45.9988 55.0803 45.2266C55.0803 44.4576 55.2211 43.7749 55.5028 43.1783C55.7879 42.5784 56.1806 42.1094 56.6811 41.7713C57.1849 41.4299 57.7666 41.2592 58.4261 41.2592C58.8404 41.2592 59.2398 41.3355 59.6243 41.4879C60.0088 41.6371 60.3535 41.8674 60.6584 42.179C60.9666 42.4872 61.2102 42.8767 61.3892 43.3473C61.5682 43.8146 61.6577 44.3681 61.6577 45.0078V45.4453H55.6918V44.6648H60.7528C60.7528 44.1742 60.6534 43.7334 60.4545 43.3423C60.259 42.9479 59.9856 42.6364 59.6342 42.4077C59.2862 42.179 58.8835 42.0646 58.4261 42.0646C57.9422 42.0646 57.5163 42.1939 57.1484 42.4524C56.7805 42.7109 56.4922 43.0523 56.2834 43.4766C56.0779 43.9008 55.9735 44.3648 55.9702 44.8686V45.3359C55.9702 45.9425 56.0746 46.4728 56.2834 46.9268C56.4955 47.3776 56.7955 47.7273 57.1832 47.9759C57.571 48.2244 58.0301 48.3487 58.5604 48.3487C58.9216 48.3487 59.2382 48.2924 59.5099 48.1797C59.785 48.067 60.0154 47.9162 60.201 47.7273C60.3899 47.535 60.5324 47.3246 60.6286 47.0959L61.4688 47.3693C61.3527 47.6908 61.1622 47.9875 60.897 48.2592C60.6352 48.531 60.3071 48.7498 59.9126 48.9155C59.5215 49.0779 59.0708 49.1591 58.5604 49.1591ZM64.4927 38.8182V49H63.6078V38.8182H64.4927ZM69.8173 49.1591C69.1345 49.1591 68.5396 48.9884 68.0325 48.647C67.5287 48.3056 67.1376 47.8383 66.8592 47.245C66.5808 46.6518 66.4416 45.9756 66.4416 45.2166C66.4416 44.451 66.5824 43.7699 66.8642 43.1733C67.1492 42.5767 67.5436 42.1094 68.0474 41.7713C68.5512 41.4299 69.1362 41.2592 69.8024 41.2592C70.3128 41.2592 70.7752 41.3587 71.1895 41.5575C71.6038 41.7531 71.9451 42.0298 72.2136 42.3878C72.4854 42.7424 72.6561 43.1567 72.7257 43.6307H71.8308C71.738 43.1998 71.5143 42.8319 71.1596 42.527C70.8083 42.2187 70.3609 42.0646 69.8173 42.0646C69.3301 42.0646 68.8992 42.1972 68.5247 42.4624C68.1502 42.7242 67.8568 43.0904 67.6447 43.5611C67.4359 44.0284 67.3315 44.5703 67.3315 45.1868C67.3315 45.8066 67.4342 46.3551 67.6397 46.8324C67.8452 47.3063 68.1336 47.6776 68.5048 47.946C68.8793 48.2145 69.3168 48.3487 69.8173 48.3487C70.1554 48.3487 70.4636 48.2857 70.742 48.1598C71.0237 48.0305 71.2591 47.8482 71.448 47.6129C71.6402 47.3776 71.7695 47.0975 71.8358 46.7727H72.7306C72.6644 47.2334 72.5003 47.6444 72.2385 48.0057C71.9799 48.3636 71.6435 48.6454 71.2292 48.8509C70.8182 49.0563 70.3476 49.1591 69.8173 49.1591ZM77.5953 49.1591C76.9358 49.1591 76.3525 48.9917 75.8453 48.657C75.3416 48.3222 74.9471 47.8598 74.6621 47.2699C74.3771 46.6766 74.2346 45.9922 74.2346 45.2166C74.2346 44.4344 74.3771 43.7467 74.6621 43.1534C74.9471 42.5568 75.3416 42.0928 75.8453 41.7614C76.3525 41.4266 76.9358 41.2592 77.5953 41.2592C78.2549 41.2592 78.8366 41.4266 79.3404 41.7614C79.8442 42.0961 80.2386 42.5601 80.5236 43.1534C80.812 43.7467 80.9561 44.4344 80.9561 45.2166C80.9561 45.9922 80.8136 46.6766 80.5286 47.2699C80.2435 47.8598 79.8475 48.3222 79.3404 48.657C78.8366 48.9917 78.2549 49.1591 77.5953 49.1591ZM77.5953 48.3487C78.1257 48.3487 78.5748 48.2062 78.9426 47.9212C79.3105 47.6361 79.589 47.2566 79.7779 46.7827C79.9701 46.3087 80.0662 45.7867 80.0662 45.2166C80.0662 44.6465 79.9701 44.1229 79.7779 43.6456C79.589 43.1683 79.3105 42.7855 78.9426 42.4972C78.5748 42.2088 78.1257 42.0646 77.5953 42.0646C77.0684 42.0646 76.6193 42.2088 76.248 42.4972C75.8801 42.7855 75.6001 43.1683 75.4078 43.6456C75.2189 44.1229 75.1245 44.6465 75.1245 45.2166C75.1245 45.7867 75.2189 46.3087 75.4078 46.7827C75.6001 47.2566 75.8801 47.6361 76.248 47.9212C76.6159 48.2062 77.065 48.3487 77.5953 48.3487ZM82.8988 49V41.3636H83.7589V42.5369H83.8384C83.9909 42.1425 84.2444 41.8326 84.5991 41.6072C84.957 41.3786 85.3862 41.2642 85.8867 41.2642C86.4137 41.2642 86.8462 41.3885 87.1843 41.6371C87.5257 41.8823 87.7809 42.2204 87.9499 42.6513H88.0146C88.1869 42.227 88.467 41.8906 88.8548 41.642C89.2459 41.3902 89.7198 41.2642 90.2766 41.2642C90.9859 41.2642 91.546 41.4879 91.957 41.9354C92.368 42.3795 92.5735 43.0291 92.5735 43.8842V49H91.6886V43.8842C91.6886 43.281 91.5344 42.8286 91.2262 42.527C90.918 42.2254 90.512 42.0746 90.0082 42.0746C89.4248 42.0746 88.9757 42.2536 88.6609 42.6115C88.346 42.9695 88.1886 43.4235 88.1886 43.9737V49H87.2837V43.8047C87.2837 43.2876 87.1396 42.87 86.8512 42.5518C86.5629 42.2337 86.1568 42.0746 85.6332 42.0746C85.2818 42.0746 84.9653 42.1607 84.6836 42.3331C84.4052 42.5054 84.1848 42.7457 84.0224 43.054C83.8633 43.3589 83.7837 43.7102 83.7837 44.108V49H82.8988ZM98.0037 49.1591C97.2911 49.1591 96.6747 48.9934 96.1543 48.6619C95.6339 48.3272 95.2312 47.8648 94.9462 47.2749C94.6645 46.6816 94.5236 45.9988 94.5236 45.2266C94.5236 44.4576 94.6645 43.7749 94.9462 43.1783C95.2312 42.5784 95.624 42.1094 96.1245 41.7713C96.6283 41.4299 97.2099 41.2592 97.8695 41.2592C98.2838 41.2592 98.6832 41.3355 99.0676 41.4879C99.4521 41.6371 99.7968 41.8674 100.102 42.179C100.41 42.4872 100.654 42.8767 100.833 43.3473C101.012 43.8146 101.101 44.3681 101.101 45.0078V45.4453H95.1351V44.6648H100.196C100.196 44.1742 100.097 43.7334 99.8979 43.3423C99.7024 42.9479 99.4289 42.6364 99.0776 42.4077C98.7296 42.179 98.3269 42.0646 97.8695 42.0646C97.3856 42.0646 96.9597 42.1939 96.5918 42.4524C96.2239 42.7109 95.9355 43.0523 95.7267 43.4766C95.5212 43.9008 95.4168 44.3648 95.4135 44.8686V45.3359C95.4135 45.9425 95.5179 46.4728 95.7267 46.9268C95.9389 47.3776 96.2388 47.7273 96.6266 47.9759C97.0144 48.2244 97.4734 48.3487 98.0037 48.3487C98.365 48.3487 98.6815 48.2924 98.9533 48.1797C99.2284 48.067 99.4587 47.9162 99.6444 47.7273C99.8333 47.535 99.9758 47.3246 100.072 47.0959L100.912 47.3693C100.796 47.6908 100.606 47.9875 100.34 48.2592C100.079 48.531 99.7504 48.7498 99.356 48.9155C98.9649 49.0779 98.5141 49.1591 98.0037 49.1591ZM109.996 41.3636V42.1342H106.352V41.3636H109.996ZM107.491 39.5341H108.381V47.0064C108.381 47.3246 108.435 47.5748 108.545 47.7571C108.654 47.9361 108.797 48.0637 108.972 48.1399C109.148 48.2128 109.335 48.2493 109.534 48.2493C109.65 48.2493 109.75 48.2427 109.832 48.2294C109.915 48.2128 109.988 48.1963 110.051 48.1797L110.24 48.9801C110.154 49.0133 110.048 49.0431 109.922 49.0696C109.796 49.0994 109.64 49.1143 109.455 49.1143C109.13 49.1143 108.817 49.0431 108.515 48.9006C108.217 48.758 107.971 48.5459 107.779 48.2642C107.587 47.9825 107.491 47.6328 107.491 47.2152V39.5341ZM114.892 49.1591C114.233 49.1591 113.649 48.9917 113.142 48.657C112.638 48.3222 112.244 47.8598 111.959 47.2699C111.674 46.6766 111.531 45.9922 111.531 45.2166C111.531 44.4344 111.674 43.7467 111.959 43.1534C112.244 42.5568 112.638 42.0928 113.142 41.7614C113.649 41.4266 114.233 41.2592 114.892 41.2592C115.552 41.2592 116.133 41.4266 116.637 41.7614C117.141 42.0961 117.535 42.5601 117.82 43.1534C118.109 43.7467 118.253 44.4344 118.253 45.2166C118.253 45.9922 118.11 46.6766 117.825 47.2699C117.54 47.8598 117.144 48.3222 116.637 48.657C116.133 48.9917 115.552 49.1591 114.892 49.1591ZM114.892 48.3487C115.423 48.3487 115.872 48.2062 116.24 47.9212C116.607 47.6361 116.886 47.2566 117.075 46.7827C117.267 46.3087 117.363 45.7867 117.363 45.2166C117.363 44.6465 117.267 44.1229 117.075 43.6456C116.886 43.1683 116.607 42.7855 116.24 42.4972C115.872 42.2088 115.423 42.0646 114.892 42.0646C114.365 42.0646 113.916 42.2088 113.545 42.4972C113.177 42.7855 112.897 43.1683 112.705 43.6456C112.516 44.1229 112.421 44.6465 112.421 45.2166C112.421 45.7867 112.516 46.3087 112.705 46.7827C112.897 47.2566 113.177 47.6361 113.545 47.9212C113.913 48.2062 114.362 48.3487 114.892 48.3487ZM130.044 41.3636L127.255 49H126.311L123.522 41.3636H124.481L126.748 47.8317H126.818L129.085 41.3636H130.044ZM136.628 46.0817V41.3636H137.513V49H136.628V47.7322H136.558C136.379 48.1233 136.096 48.4498 135.708 48.7116C135.32 48.9702 134.847 49.0994 134.286 49.0994C133.799 49.0994 133.367 48.9934 132.989 48.7812C132.611 48.5658 132.314 48.2509 132.099 47.8366C131.883 47.4223 131.776 46.9136 131.776 46.3104V41.3636H132.661V46.2557C132.661 46.8523 132.836 47.3329 133.188 47.6974C133.539 48.0587 133.99 48.2393 134.54 48.2393C134.885 48.2393 135.216 48.1565 135.534 47.9908C135.852 47.825 136.114 47.5831 136.32 47.2649C136.525 46.9434 136.628 46.549 136.628 46.0817ZM142.943 49.1591C142.231 49.1591 141.614 48.9934 141.094 48.6619C140.573 48.3272 140.171 47.8648 139.886 47.2749C139.604 46.6816 139.463 45.9988 139.463 45.2266C139.463 44.4576 139.604 43.7749 139.886 43.1783C140.171 42.5784 140.563 42.1094 141.064 41.7713C141.568 41.4299 142.149 41.2592 142.809 41.2592C143.223 41.2592 143.623 41.3355 144.007 41.4879C144.392 41.6371 144.736 41.8674 145.041 42.179C145.349 42.4872 145.593 42.8767 145.772 43.3473C145.951 43.8146 146.04 44.3681 146.04 45.0078V45.4453H140.075V44.6648H145.136C145.136 44.1742 145.036 43.7334 144.837 43.3423C144.642 42.9479 144.368 42.6364 144.017 42.4077C143.669 42.179 143.266 42.0646 142.809 42.0646C142.325 42.0646 141.899 42.1939 141.531 42.4524C141.163 42.7109 140.875 43.0523 140.666 43.4766C140.461 43.9008 140.356 44.3648 140.353 44.8686V45.3359C140.353 45.9425 140.457 46.4728 140.666 46.9268C140.878 47.3776 141.178 47.7273 141.566 47.9759C141.954 48.2244 142.413 48.3487 142.943 48.3487C143.304 48.3487 143.621 48.2924 143.893 48.1797C144.168 48.067 144.398 47.9162 144.584 47.7273C144.773 47.535 144.915 47.3246 145.011 47.0959L145.852 47.3693C145.736 47.6908 145.545 47.9875 145.28 48.2592C145.018 48.531 144.69 48.7498 144.295 48.9155C143.904 49.0779 143.454 49.1591 142.943 49.1591ZM152.112 44.2173V45.0526H147.876V44.2173H152.112ZM157.342 41.3636V42.1342H153.698V41.3636H157.342ZM154.836 39.5341H155.726V47.0064C155.726 47.3246 155.781 47.5748 155.89 47.7571C156 47.9361 156.142 48.0637 156.318 48.1399C156.494 48.2128 156.681 48.2493 156.88 48.2493C156.996 48.2493 157.095 48.2427 157.178 48.2294C157.261 48.2128 157.334 48.1963 157.397 48.1797L157.586 48.9801C157.5 49.0133 157.394 49.0431 157.268 49.0696C157.142 49.0994 156.986 49.1143 156.8 49.1143C156.475 49.1143 156.162 49.0431 155.861 48.9006C155.562 48.758 155.317 48.5459 155.125 48.2642C154.933 47.9825 154.836 47.6328 154.836 47.2152V39.5341ZM162.238 49.1591C161.578 49.1591 160.995 48.9917 160.488 48.657C159.984 48.3222 159.59 47.8598 159.305 47.2699C159.02 46.6766 158.877 45.9922 158.877 45.2166C158.877 44.4344 159.02 43.7467 159.305 43.1534C159.59 42.5568 159.984 42.0928 160.488 41.7614C160.995 41.4266 161.578 41.2592 162.238 41.2592C162.897 41.2592 163.479 41.4266 163.983 41.7614C164.487 42.0961 164.881 42.5601 165.166 43.1534C165.455 43.7467 165.599 44.4344 165.599 45.2166C165.599 45.9922 165.456 46.6766 165.171 47.2699C164.886 47.8598 164.49 48.3222 163.983 48.657C163.479 48.9917 162.897 49.1591 162.238 49.1591ZM162.238 48.3487C162.768 48.3487 163.217 48.2062 163.585 47.9212C163.953 47.6361 164.232 47.2566 164.42 46.7827C164.613 46.3087 164.709 45.7867 164.709 45.2166C164.709 44.6465 164.613 44.1229 164.42 43.6456C164.232 43.1683 163.953 42.7855 163.585 42.4972C163.217 42.2088 162.768 42.0646 162.238 42.0646C161.711 42.0646 161.262 42.2088 160.891 42.4972C160.523 42.7855 160.243 43.1683 160.05 43.6456C159.862 44.1229 159.767 44.6465 159.767 45.2166C159.767 45.7867 159.862 46.3087 160.05 46.7827C160.243 47.2566 160.523 47.6361 160.891 47.9212C161.259 48.2062 161.708 48.3487 162.238 48.3487ZM169.674 49.174C169.213 49.174 168.793 49.0845 168.411 48.9055C168.03 48.7232 167.727 48.4614 167.502 48.12C167.276 47.7753 167.164 47.3577 167.164 46.8672C167.164 46.4893 167.235 46.1712 167.377 45.9126C167.52 45.6541 167.722 45.442 167.984 45.2763C168.246 45.1106 168.556 44.9796 168.914 44.8835C169.271 44.7874 169.666 44.7128 170.097 44.6598C170.524 44.6068 170.886 44.5604 171.181 44.5206C171.479 44.4808 171.706 44.4179 171.862 44.3317C172.017 44.2455 172.095 44.1063 172.095 43.9141V43.7351C172.095 43.2147 171.94 42.8054 171.628 42.5071C171.32 42.2055 170.876 42.0547 170.296 42.0547C169.745 42.0547 169.296 42.1757 168.948 42.4176C168.604 42.6596 168.362 42.9446 168.222 43.2727L167.382 42.9695C167.555 42.5518 167.793 42.2187 168.098 41.9702C168.403 41.7183 168.744 41.5376 169.122 41.4283C169.5 41.3156 169.883 41.2592 170.271 41.2592C170.562 41.2592 170.866 41.2973 171.181 41.3736C171.499 41.4498 171.794 41.5824 172.066 41.7713C172.337 41.9569 172.558 42.2171 172.727 42.5518C172.896 42.8833 172.98 43.3042 172.98 43.8146V49H172.095V47.7919H172.041C171.935 48.0173 171.777 48.236 171.568 48.4482C171.36 48.6603 171.098 48.8343 170.783 48.9702C170.468 49.1061 170.098 49.174 169.674 49.174ZM169.794 48.3636C170.264 48.3636 170.672 48.2592 171.017 48.0504C171.361 47.8416 171.626 47.5649 171.812 47.2202C172.001 46.8722 172.095 46.4893 172.095 46.0717V44.968C172.029 45.031 171.918 45.0874 171.762 45.1371C171.61 45.1868 171.432 45.2315 171.23 45.2713C171.031 45.3078 170.833 45.3393 170.634 45.3658C170.435 45.3923 170.256 45.4155 170.097 45.4354C169.666 45.4884 169.298 45.5713 168.993 45.6839C168.688 45.7966 168.454 45.9524 168.292 46.1513C168.13 46.3468 168.048 46.5987 168.048 46.907C168.048 47.371 168.214 47.7306 168.546 47.9858C168.877 48.2377 169.293 48.3636 169.794 48.3636ZM180.465 43.0391L179.655 43.2678C179.575 43.0391 179.462 42.8319 179.317 42.6463C179.171 42.4607 178.98 42.3132 178.745 42.2038C178.513 42.0945 178.224 42.0398 177.88 42.0398C177.363 42.0398 176.939 42.1624 176.607 42.4077C176.276 42.6529 176.11 42.9695 176.11 43.3572C176.11 43.6854 176.223 43.9522 176.448 44.1577C176.677 44.3598 177.028 44.5206 177.502 44.6399L178.655 44.9233C179.295 45.0791 179.774 45.326 180.092 45.6641C180.414 46.0021 180.574 46.4264 180.574 46.9368C180.574 47.3677 180.455 47.7505 180.216 48.0852C179.978 48.42 179.645 48.6835 179.217 48.8757C178.793 49.0646 178.301 49.1591 177.741 49.1591C176.995 49.1591 176.38 48.9917 175.896 48.657C175.412 48.3189 175.102 47.8317 174.966 47.1953L175.817 46.9865C175.926 47.4406 176.14 47.7836 176.458 48.0156C176.779 48.2476 177.202 48.3636 177.726 48.3636C178.312 48.3636 178.781 48.2327 179.133 47.9709C179.484 47.7057 179.66 47.3743 179.66 46.9766C179.66 46.6683 179.557 46.4098 179.351 46.201C179.146 45.9889 178.834 45.8331 178.417 45.7337L177.169 45.4354C176.506 45.2763 176.015 45.0244 175.697 44.6797C175.379 44.335 175.22 43.9074 175.22 43.397C175.22 42.9761 175.334 42.6065 175.563 42.2884C175.792 41.9669 176.107 41.715 176.508 41.5327C176.909 41.3504 177.366 41.2592 177.88 41.2592C178.579 41.2592 179.138 41.4183 179.555 41.7365C179.976 42.0514 180.279 42.4856 180.465 43.0391ZM185.52 41.3636V42.1342H181.876V41.3636H185.52ZM183.014 39.5341H183.904V47.0064C183.904 47.3246 183.959 47.5748 184.068 47.7571C184.178 47.9361 184.32 48.0637 184.496 48.1399C184.671 48.2128 184.859 48.2493 185.058 48.2493C185.174 48.2493 185.273 48.2427 185.356 48.2294C185.439 48.2128 185.512 48.1963 185.575 48.1797L185.763 48.9801C185.677 49.0133 185.571 49.0431 185.445 49.0696C185.319 49.0994 185.164 49.1143 184.978 49.1143C184.653 49.1143 184.34 49.0431 184.038 48.9006C183.74 48.758 183.495 48.5459 183.303 48.2642C183.11 47.9825 183.014 47.6328 183.014 47.2152V39.5341ZM190.672 41.3636V42.1342H186.918V41.3636H190.672ZM188.091 49V40.245C188.091 39.834 188.186 39.4877 188.375 39.206C188.567 38.9242 188.817 38.7105 189.126 38.5646C189.434 38.4188 189.76 38.3459 190.105 38.3459C190.337 38.3459 190.529 38.3658 190.682 38.4055C190.837 38.442 190.96 38.4785 191.05 38.5149L190.791 39.2905C190.725 39.2706 190.644 39.2474 190.547 39.2209C190.451 39.1944 190.33 39.1811 190.184 39.1811C189.8 39.1811 189.503 39.2888 189.295 39.5043C189.086 39.7197 188.981 40.0279 188.981 40.429L188.976 49H188.091ZM192.448 49V41.3636H193.338V49H192.448ZM192.9 40.0511C192.718 40.0511 192.562 39.9898 192.433 39.8672C192.304 39.7412 192.239 39.5904 192.239 39.4148C192.239 39.2391 192.304 39.09 192.433 38.9673C192.562 38.8414 192.718 38.7784 192.9 38.7784C193.083 38.7784 193.238 38.8414 193.368 38.9673C193.497 39.09 193.561 39.2391 193.561 39.4148C193.561 39.5904 193.497 39.7412 193.368 39.8672C193.238 39.9898 193.083 40.0511 192.9 40.0511ZM198.661 49.1591C197.978 49.1591 197.383 48.9884 196.876 48.647C196.372 48.3056 195.981 47.8383 195.703 47.245C195.425 46.6518 195.285 45.9756 195.285 45.2166C195.285 44.451 195.426 43.7699 195.708 43.1733C195.993 42.5767 196.387 42.1094 196.891 41.7713C197.395 41.4299 197.98 41.2592 198.646 41.2592C199.157 41.2592 199.619 41.3587 200.033 41.5575C200.448 41.7531 200.789 42.0298 201.057 42.3878C201.329 42.7424 201.5 43.1567 201.569 43.6307H200.675C200.582 43.1998 200.358 42.8319 200.003 42.527C199.652 42.2187 199.205 42.0646 198.661 42.0646C198.174 42.0646 197.743 42.1972 197.368 42.4624C196.994 42.7242 196.701 43.0904 196.488 43.5611C196.28 44.0284 196.175 44.5703 196.175 45.1868C196.175 45.8066 196.278 46.3551 196.483 46.8324C196.689 47.3063 196.977 47.6776 197.349 47.946C197.723 48.2145 198.161 48.3487 198.661 48.3487C198.999 48.3487 199.307 48.2857 199.586 48.1598C199.867 48.0305 200.103 47.8482 200.292 47.6129C200.484 47.3776 200.613 47.0975 200.68 46.7727H201.574C201.508 47.2334 201.344 47.6444 201.082 48.0057C200.824 48.3636 200.487 48.6454 200.073 48.8509C199.662 49.0563 199.191 49.1591 198.661 49.1591ZM204.714 38.8182L204.649 46.0817H203.774L203.71 38.8182H204.714ZM204.212 49.0746C204.016 49.0746 203.847 49.005 203.705 48.8658C203.566 48.7232 203.496 48.5542 203.496 48.3587C203.496 48.1598 203.566 47.9908 203.705 47.8516C203.847 47.7124 204.016 47.6428 204.212 47.6428C204.407 47.6428 204.575 47.7124 204.714 47.8516C204.856 47.9908 204.928 48.1598 204.928 48.3587C204.928 48.4879 204.895 48.6072 204.828 48.7166C204.765 48.826 204.679 48.9138 204.57 48.9801C204.464 49.0431 204.344 49.0746 204.212 49.0746Z" fill="#E2E2E2" fill-opacity="0.8"/>
<path d="M23.5 12C21.6211 12 19.7844 12.5572 18.2221 13.601C16.6598 14.6449 15.4422 16.1286 14.7231 17.8645C14.0041 19.6004 13.816 21.5105 14.1825 23.3534C14.5491 25.1962 15.4539 26.8889 16.7825 28.2175C18.1111 29.5461 19.8038 30.4509 21.6466 30.8175C23.4895 31.184 25.3996 30.9959 27.1355 30.2769C28.8714 29.5578 30.3551 28.3402 31.399 26.7779C32.4428 25.2156 33 23.3789 33 21.5C32.9973 18.9813 31.9956 16.5664 30.2146 14.7854C28.4336 13.0044 26.0187 12.0027 23.5 12ZM27.6709 19.8247L22.5555 24.9401C22.4876 25.008 22.407 25.0619 22.3183 25.0987C22.2296 25.1355 22.1345 25.1544 22.0385 25.1544C21.9424 25.1544 21.8473 25.1355 21.7586 25.0987C21.6699 25.0619 21.5893 25.008 21.5214 24.9401L19.3291 22.7478C19.192 22.6107 19.115 22.4247 19.115 22.2308C19.115 22.0368 19.192 21.8509 19.3291 21.7137C19.4663 21.5766 19.6522 21.4996 19.8462 21.4996C20.0401 21.4996 20.2261 21.5766 20.3632 21.7137L22.0385 23.3899L26.6368 18.7907C26.7047 18.7228 26.7853 18.6689 26.874 18.6322C26.9627 18.5954 27.0578 18.5765 27.1538 18.5765C27.2499 18.5765 27.3449 18.5954 27.4337 18.6322C27.5224 18.6689 27.603 18.7228 27.6709 18.7907C27.7388 18.8586 27.7926 18.9392 27.8294 19.0279C27.8661 19.1166 27.885 19.2117 27.885 19.3077C27.885 19.4037 27.8661 19.4988 27.8294 19.5875C27.7926 19.6762 27.7388 19.7568 27.6709 19.8247Z" fill="#28AB70"/>
<path d="M44.3665 15.8182L47.0163 23.8324H47.1207L49.7656 15.8182H51.794L48.2045 26H45.9276L42.343 15.8182H44.3665ZM57.9228 22.7884V18.3636H59.7225V26H57.9775V24.6428H57.8979C57.7256 25.0703 57.4422 25.42 57.0478 25.6918C56.6567 25.9635 56.1744 26.0994 55.601 26.0994C55.1006 26.0994 54.6581 25.9884 54.2736 25.7663C53.8925 25.541 53.5942 25.2145 53.3787 24.7869C53.1633 24.3561 53.0556 23.8357 53.0556 23.2259V18.3636H54.8553V22.9474C54.8553 23.4313 54.9879 23.8158 55.253 24.1009C55.5182 24.3859 55.8662 24.5284 56.2971 24.5284C56.5622 24.5284 56.8191 24.4638 57.0676 24.3345C57.3162 24.2053 57.5201 24.013 57.6792 23.7578C57.8416 23.4993 57.9228 23.1761 57.9228 22.7884ZM64.9538 26.1491C64.1882 26.1491 63.527 25.9901 62.9702 25.6719C62.4167 25.3504 61.9908 24.8963 61.6925 24.3097C61.3942 23.7197 61.245 23.0253 61.245 22.2266C61.245 21.4411 61.3942 20.7517 61.6925 20.1584C61.9941 19.5618 62.415 19.0978 62.9553 18.7663C63.4955 18.4316 64.1302 18.2642 64.8594 18.2642C65.33 18.2642 65.7741 18.3404 66.1918 18.4929C66.6127 18.642 66.9839 18.8741 67.3054 19.1889C67.6302 19.5038 67.8854 19.9048 68.071 20.392C68.2566 20.8759 68.3494 21.4527 68.3494 22.1222V22.674H62.0902V21.4609H66.6243C66.621 21.1162 66.5464 20.8097 66.4006 20.5412C66.2547 20.2694 66.0509 20.0556 65.7891 19.8999C65.5305 19.7441 65.2289 19.6662 64.8842 19.6662C64.5163 19.6662 64.1932 19.7557 63.9148 19.9347C63.6364 20.1103 63.4193 20.3423 63.2635 20.6307C63.111 20.9157 63.0331 21.2289 63.0298 21.5703V22.6293C63.0298 23.0734 63.111 23.4545 63.2734 23.7727C63.4358 24.0876 63.6629 24.3295 63.9545 24.4986C64.2462 24.6643 64.5876 24.7472 64.9787 24.7472C65.2405 24.7472 65.4775 24.7107 65.6896 24.6378C65.9018 24.5616 66.0857 24.4505 66.2415 24.3047C66.3973 24.1589 66.5149 23.9782 66.5945 23.7628L68.2749 23.9517C68.1688 24.3958 67.9666 24.7836 67.6683 25.1151C67.3733 25.4432 66.9955 25.6984 66.5348 25.8807C66.0741 26.0597 65.5471 26.1491 64.9538 26.1491ZM72.9767 17.3643V15.8182H81.1003V17.3643H77.9533V26H76.1238V17.3643H72.9767ZM84.8104 26.1491C84.0646 26.1491 83.4183 25.9851 82.8714 25.657C82.3246 25.3288 81.9003 24.8698 81.5987 24.2798C81.3004 23.6899 81.1513 23.0005 81.1513 22.2116C81.1513 21.4228 81.3004 20.7318 81.5987 20.1385C81.9003 19.5452 82.3246 19.0845 82.8714 18.7564C83.4183 18.4283 84.0646 18.2642 84.8104 18.2642C85.5561 18.2642 86.2024 18.4283 86.7493 18.7564C87.2962 19.0845 87.7188 19.5452 88.017 20.1385C88.3187 20.7318 88.4695 21.4228 88.4695 22.2116C88.4695 23.0005 88.3187 23.6899 88.017 24.2798C87.7188 24.8698 87.2962 25.3288 86.7493 25.657C86.2024 25.9851 85.5561 26.1491 84.8104 26.1491ZM84.8203 24.7074C85.2247 24.7074 85.5627 24.5964 85.8345 24.3743C86.1063 24.1489 86.3085 23.8473 86.4411 23.4695C86.5769 23.0916 86.6449 22.6707 86.6449 22.2067C86.6449 21.7393 86.5769 21.3168 86.4411 20.9389C86.3085 20.5578 86.1063 20.2545 85.8345 20.0291C85.5627 19.8037 85.2247 19.6911 84.8203 19.6911C84.406 19.6911 84.0613 19.8037 83.7862 20.0291C83.5144 20.2545 83.3106 20.5578 83.1747 20.9389C83.0421 21.3168 82.9759 21.7393 82.9759 22.2067C82.9759 22.6707 83.0421 23.0916 83.1747 23.4695C83.3106 23.8473 83.5144 24.1489 83.7862 24.3743C84.0613 24.5964 84.406 24.7074 84.8203 24.7074ZM92.1944 26.1541C91.7105 26.1541 91.2747 26.0679 90.8869 25.8956C90.5024 25.7199 90.1975 25.4614 89.9721 25.12C89.7501 24.7786 89.639 24.3577 89.639 23.8572C89.639 23.4264 89.7186 23.0701 89.8777 22.7884C90.0368 22.5066 90.2538 22.2812 90.5289 22.1122C90.804 21.9432 91.1139 21.8156 91.4586 21.7294C91.8066 21.6399 92.1663 21.5753 92.5375 21.5355C92.9849 21.4891 93.3478 21.4477 93.6262 21.4112C93.9047 21.3714 94.1068 21.3118 94.2328 21.2322C94.362 21.1494 94.4267 21.0218 94.4267 20.8494V20.8196C94.4267 20.4451 94.3156 20.1551 94.0936 19.9496C93.8715 19.7441 93.5517 19.6413 93.1341 19.6413C92.6932 19.6413 92.3436 19.7375 92.085 19.9297C91.8298 20.1219 91.6575 20.349 91.568 20.6108L89.8876 20.3722C90.0202 19.9081 90.2389 19.5204 90.5439 19.2088C90.8488 18.8939 91.2217 18.6586 91.6625 18.5028C92.1033 18.3438 92.5905 18.2642 93.1241 18.2642C93.492 18.2642 93.8583 18.3073 94.2228 18.3935C94.5874 18.4796 94.9205 18.6222 95.2221 18.821C95.5237 19.0166 95.7657 19.2834 95.948 19.6214C96.1336 19.9595 96.2264 20.3821 96.2264 20.8892V26H94.4963V24.951H94.4366C94.3272 25.1631 94.1731 25.362 93.9743 25.5476C93.7787 25.7299 93.5318 25.8774 93.2335 25.9901C92.9385 26.0994 92.5922 26.1541 92.1944 26.1541ZM92.6618 24.8317C93.023 24.8317 93.3362 24.7604 93.6014 24.6179C93.8665 24.4721 94.0704 24.2798 94.2129 24.0412C94.3587 23.8026 94.4316 23.5424 94.4316 23.2607V22.3608C94.3753 22.4072 94.2792 22.4503 94.1433 22.4901C94.0107 22.5298 93.8616 22.5646 93.6958 22.5945C93.5301 22.6243 93.3661 22.6508 93.2037 22.674C93.0413 22.6972 92.9004 22.7171 92.7811 22.7337C92.5126 22.7701 92.2723 22.8298 92.0602 22.9126C91.8481 22.9955 91.6807 23.1115 91.5581 23.2607C91.4354 23.4065 91.3741 23.5954 91.3741 23.8274C91.3741 24.1589 91.4951 24.4091 91.737 24.5781C91.979 24.7472 92.2872 24.8317 92.6618 24.8317ZM104.072 20.3821L102.431 20.5611C102.385 20.3954 102.303 20.2396 102.187 20.0938C102.075 19.9479 101.922 19.8303 101.73 19.7408C101.538 19.6513 101.302 19.6065 101.024 19.6065C100.649 19.6065 100.335 19.6877 100.079 19.8501C99.8275 20.0125 99.7032 20.223 99.7065 20.4815C99.7032 20.7036 99.7844 20.8842 99.9501 21.0234C100.119 21.1626 100.398 21.277 100.785 21.3665L102.088 21.6449C102.81 21.8007 103.347 22.0476 103.699 22.3857C104.053 22.7237 104.232 23.1662 104.236 23.7131C104.232 24.1937 104.091 24.6179 103.813 24.9858C103.538 25.3504 103.155 25.6354 102.665 25.8409C102.174 26.0464 101.611 26.1491 100.974 26.1491C100.04 26.1491 99.2872 25.9536 98.7172 25.5625C98.1471 25.1681 97.8074 24.6196 97.698 23.9169L99.4529 23.7479C99.5325 24.0926 99.7015 24.3527 99.96 24.5284C100.219 24.7041 100.555 24.7919 100.969 24.7919C101.397 24.7919 101.74 24.7041 101.998 24.5284C102.26 24.3527 102.391 24.1357 102.391 23.8771C102.391 23.6584 102.307 23.4777 102.138 23.3352C101.972 23.1927 101.713 23.0833 101.362 23.0071L100.059 22.7337C99.327 22.5812 98.7851 22.3243 98.4338 21.9631C98.0824 21.5985 97.9084 21.1378 97.9118 20.581C97.9084 20.1103 98.036 19.7027 98.2946 19.358C98.5564 19.0099 98.9193 18.7415 99.3833 18.5526C99.8507 18.3603 100.389 18.2642 100.999 18.2642C101.894 18.2642 102.598 18.4548 103.112 18.8359C103.629 19.2171 103.949 19.7325 104.072 20.3821ZM109.533 18.3636V19.7557H105.143V18.3636H109.533ZM106.227 16.5341H108.026V23.7031C108.026 23.9451 108.063 24.1307 108.136 24.2599C108.212 24.3859 108.311 24.4721 108.434 24.5185C108.557 24.5649 108.693 24.5881 108.842 24.5881C108.954 24.5881 109.057 24.5798 109.15 24.5632C109.246 24.5466 109.319 24.5317 109.369 24.5185L109.672 25.9254C109.576 25.9586 109.438 25.995 109.259 26.0348C109.084 26.0746 108.868 26.0978 108.613 26.1044C108.162 26.1177 107.756 26.0497 107.395 25.9006C107.034 25.7481 106.747 25.5128 106.535 25.1946C106.326 24.8764 106.223 24.4787 106.227 24.0014V16.5341ZM114.906 18.3636V19.7557H110.392V18.3636H114.906ZM111.52 26V17.6428C111.52 17.129 111.626 16.7015 111.838 16.3601C112.054 16.0187 112.342 15.7635 112.703 15.5945C113.065 15.4254 113.466 15.3409 113.907 15.3409C114.218 15.3409 114.495 15.3658 114.737 15.4155C114.979 15.4652 115.158 15.5099 115.274 15.5497L114.916 16.9418C114.84 16.9186 114.743 16.8954 114.627 16.8722C114.511 16.8456 114.382 16.8324 114.24 16.8324C113.905 16.8324 113.668 16.9136 113.529 17.076C113.393 17.2351 113.325 17.4638 113.325 17.7621V26H111.52ZM116.315 26V18.3636H118.115V26H116.315ZM117.22 17.2798C116.935 17.2798 116.69 17.1854 116.484 16.9964C116.279 16.8042 116.176 16.5739 116.176 16.3054C116.176 16.0336 116.279 15.8033 116.484 15.6143C116.69 15.4221 116.935 15.326 117.22 15.326C117.509 15.326 117.754 15.4221 117.956 15.6143C118.161 15.8033 118.264 16.0336 118.264 16.3054C118.264 16.5739 118.161 16.8042 117.956 16.9964C117.754 17.1854 117.509 17.2798 117.22 17.2798ZM123.297 26.1491C122.534 26.1491 121.88 25.9818 121.333 25.647C120.789 25.3123 120.37 24.8499 120.075 24.2599C119.783 23.6667 119.638 22.9839 119.638 22.2116C119.638 21.4361 119.787 20.7517 120.085 20.1584C120.383 19.5618 120.804 19.0978 121.348 18.7663C121.895 18.4316 122.541 18.2642 123.287 18.2642C123.907 18.2642 124.455 18.3786 124.932 18.6072C125.413 18.8326 125.796 19.1525 126.081 19.5668C126.366 19.9777 126.528 20.4583 126.568 21.0085H124.848C124.778 20.6406 124.613 20.334 124.351 20.0888C124.092 19.8402 123.746 19.7159 123.312 19.7159C122.944 19.7159 122.621 19.8153 122.342 20.0142C122.064 20.2098 121.847 20.4915 121.691 20.8594C121.538 21.2273 121.462 21.6681 121.462 22.1818C121.462 22.7022 121.538 23.1496 121.691 23.5241C121.843 23.8954 122.057 24.1821 122.332 24.3842C122.611 24.5831 122.937 24.6825 123.312 24.6825C123.577 24.6825 123.814 24.6328 124.023 24.5334C124.235 24.4306 124.412 24.2831 124.555 24.0909C124.697 23.8987 124.795 23.665 124.848 23.3899H126.568C126.525 23.9302 126.366 24.4091 126.091 24.8267C125.816 25.241 125.441 25.5658 124.967 25.8011C124.493 26.0331 123.936 26.1491 123.297 26.1491Z" fill="#E2E2E2"/>
<path d="M285.868 24.2314C285.91 24.2732 285.943 24.3229 285.966 24.3775C285.988 24.4321 286 24.4907 286 24.5498C286 24.6089 285.988 24.6674 285.966 24.7221C285.943 24.7767 285.91 24.8263 285.868 24.8681C285.826 24.9099 285.777 24.9431 285.722 24.9657C285.667 24.9884 285.609 25 285.55 25C285.491 25 285.432 24.9884 285.377 24.9657C285.323 24.9431 285.273 24.9099 285.231 24.8681L281.5 21.1362L277.769 24.8681C277.684 24.9526 277.57 25 277.45 25C277.331 25 277.216 24.9526 277.132 24.8681C277.047 24.7837 277 24.6692 277 24.5498C277 24.4304 277.047 24.3159 277.132 24.2314L280.864 20.5L277.132 16.7686C277.047 16.6841 277 16.5696 277 16.4502C277 16.3308 277.047 16.2163 277.132 16.1319C277.216 16.0474 277.331 16 277.45 16C277.57 16 277.684 16.0474 277.769 16.1319L281.5 19.8638L285.231 16.1319C285.316 16.0474 285.43 16 285.55 16C285.669 16 285.784 16.0474 285.868 16.1319C285.953 16.2163 286 16.3308 286 16.4502C286 16.5696 285.953 16.6841 285.868 16.7686L282.136 20.5L285.868 24.2314Z" fill="#E2E2E2" fill-opacity="0.8"/>
<rect x="0.5" y="70.5" width="301" height="59" rx="10.5" stroke="#1C1C1F"/>
<rect x="1" y="71" width="300" height="58" rx="10" fill="#0A0A0A"/>
<path d="M45.1222 119L42.3331 108.818H43.2777L45.5845 117.573H45.6641L47.9709 108.818H49.0447L51.3516 117.573H51.4311L53.7379 108.818H54.6875L51.8984 119H50.9041L48.5426 110.364H48.478L46.1165 119H45.1222ZM58.5604 119.159C57.8478 119.159 57.2313 118.993 56.7109 118.662C56.1906 118.327 55.7879 117.865 55.5028 117.275C55.2211 116.682 55.0803 115.999 55.0803 115.227C55.0803 114.458 55.2211 113.775 55.5028 113.178C55.7879 112.578 56.1806 112.109 56.6811 111.771C57.1849 111.43 57.7666 111.259 58.4261 111.259C58.8404 111.259 59.2398 111.335 59.6243 111.488C60.0088 111.637 60.3535 111.867 60.6584 112.179C60.9666 112.487 61.2102 112.877 61.3892 113.347C61.5682 113.815 61.6577 114.368 61.6577 115.008V115.445H55.6918V114.665H60.7528C60.7528 114.174 60.6534 113.733 60.4545 113.342C60.259 112.948 59.9856 112.636 59.6342 112.408C59.2862 112.179 58.8835 112.065 58.4261 112.065C57.9422 112.065 57.5163 112.194 57.1484 112.452C56.7805 112.711 56.4922 113.052 56.2834 113.477C56.0779 113.901 55.9735 114.365 55.9702 114.869V115.336C55.9702 115.942 56.0746 116.473 56.2834 116.927C56.4955 117.378 56.7955 117.727 57.1832 117.976C57.571 118.224 58.0301 118.349 58.5604 118.349C58.9216 118.349 59.2382 118.292 59.5099 118.18C59.785 118.067 60.0154 117.916 60.201 117.727C60.3899 117.535 60.5324 117.325 60.6286 117.096L61.4688 117.369C61.3527 117.691 61.1622 117.987 60.897 118.259C60.6352 118.531 60.3071 118.75 59.9126 118.915C59.5215 119.078 59.0708 119.159 58.5604 119.159ZM64.4927 108.818V119H63.6078V108.818H64.4927ZM69.8173 119.159C69.1345 119.159 68.5396 118.988 68.0325 118.647C67.5287 118.306 67.1376 117.838 66.8592 117.245C66.5808 116.652 66.4416 115.976 66.4416 115.217C66.4416 114.451 66.5824 113.77 66.8642 113.173C67.1492 112.577 67.5436 112.109 68.0474 111.771C68.5512 111.43 69.1362 111.259 69.8024 111.259C70.3128 111.259 70.7752 111.359 71.1895 111.558C71.6038 111.753 71.9451 112.03 72.2136 112.388C72.4854 112.742 72.6561 113.157 72.7257 113.631H71.8308C71.738 113.2 71.5143 112.832 71.1596 112.527C70.8083 112.219 70.3609 112.065 69.8173 112.065C69.3301 112.065 68.8992 112.197 68.5247 112.462C68.1502 112.724 67.8568 113.09 67.6447 113.561C67.4359 114.028 67.3315 114.57 67.3315 115.187C67.3315 115.807 67.4342 116.355 67.6397 116.832C67.8452 117.306 68.1336 117.678 68.5048 117.946C68.8793 118.214 69.3168 118.349 69.8173 118.349C70.1554 118.349 70.4636 118.286 70.742 118.16C71.0237 118.031 71.2591 117.848 71.448 117.613C71.6402 117.378 71.7695 117.098 71.8358 116.773H72.7306C72.6644 117.233 72.5003 117.644 72.2385 118.006C71.9799 118.364 71.6435 118.645 71.2292 118.851C70.8182 119.056 70.3476 119.159 69.8173 119.159ZM77.5953 119.159C76.9358 119.159 76.3525 118.992 75.8453 118.657C75.3416 118.322 74.9471 117.86 74.6621 117.27C74.3771 116.677 74.2346 115.992 74.2346 115.217C74.2346 114.434 74.3771 113.747 74.6621 113.153C74.9471 112.557 75.3416 112.093 75.8453 111.761C76.3525 111.427 76.9358 111.259 77.5953 111.259C78.2549 111.259 78.8366 111.427 79.3404 111.761C79.8442 112.096 80.2386 112.56 80.5236 113.153C80.812 113.747 80.9561 114.434 80.9561 115.217C80.9561 115.992 80.8136 116.677 80.5286 117.27C80.2435 117.86 79.8475 118.322 79.3404 118.657C78.8366 118.992 78.2549 119.159 77.5953 119.159ZM77.5953 118.349C78.1257 118.349 78.5748 118.206 78.9426 117.921C79.3105 117.636 79.589 117.257 79.7779 116.783C79.9701 116.309 80.0662 115.787 80.0662 115.217C80.0662 114.647 79.9701 114.123 79.7779 113.646C79.589 113.168 79.3105 112.786 78.9426 112.497C78.5748 112.209 78.1257 112.065 77.5953 112.065C77.0684 112.065 76.6193 112.209 76.248 112.497C75.8801 112.786 75.6001 113.168 75.4078 113.646C75.2189 114.123 75.1245 114.647 75.1245 115.217C75.1245 115.787 75.2189 116.309 75.4078 116.783C75.6001 117.257 75.8801 117.636 76.248 117.921C76.6159 118.206 77.065 118.349 77.5953 118.349ZM82.8988 119V111.364H83.7589V112.537H83.8384C83.9909 112.143 84.2444 111.833 84.5991 111.607C84.957 111.379 85.3862 111.264 85.8867 111.264C86.4137 111.264 86.8462 111.388 87.1843 111.637C87.5257 111.882 87.7809 112.22 87.9499 112.651H88.0146C88.1869 112.227 88.467 111.891 88.8548 111.642C89.2459 111.39 89.7198 111.264 90.2766 111.264C90.9859 111.264 91.546 111.488 91.957 111.935C92.368 112.379 92.5735 113.029 92.5735 113.884V119H91.6886V113.884C91.6886 113.281 91.5344 112.829 91.2262 112.527C90.918 112.225 90.512 112.075 90.0082 112.075C89.4248 112.075 88.9757 112.254 88.6609 112.612C88.346 112.969 88.1886 113.424 88.1886 113.974V119H87.2837V113.805C87.2837 113.288 87.1396 112.87 86.8512 112.552C86.5629 112.234 86.1568 112.075 85.6332 112.075C85.2818 112.075 84.9653 112.161 84.6836 112.333C84.4052 112.505 84.1848 112.746 84.0224 113.054C83.8633 113.359 83.7837 113.71 83.7837 114.108V119H82.8988ZM98.0037 119.159C97.2911 119.159 96.6747 118.993 96.1543 118.662C95.6339 118.327 95.2312 117.865 94.9462 117.275C94.6645 116.682 94.5236 115.999 94.5236 115.227C94.5236 114.458 94.6645 113.775 94.9462 113.178C95.2312 112.578 95.624 112.109 96.1245 111.771C96.6283 111.43 97.2099 111.259 97.8695 111.259C98.2838 111.259 98.6832 111.335 99.0676 111.488C99.4521 111.637 99.7968 111.867 100.102 112.179C100.41 112.487 100.654 112.877 100.833 113.347C101.012 113.815 101.101 114.368 101.101 115.008V115.445H95.1351V114.665H100.196C100.196 114.174 100.097 113.733 99.8979 113.342C99.7024 112.948 99.4289 112.636 99.0776 112.408C98.7296 112.179 98.3269 112.065 97.8695 112.065C97.3856 112.065 96.9597 112.194 96.5918 112.452C96.2239 112.711 95.9355 113.052 95.7267 113.477C95.5212 113.901 95.4168 114.365 95.4135 114.869V115.336C95.4135 115.942 95.5179 116.473 95.7267 116.927C95.9389 117.378 96.2388 117.727 96.6266 117.976C97.0144 118.224 97.4734 118.349 98.0037 118.349C98.365 118.349 98.6815 118.292 98.9533 118.18C99.2284 118.067 99.4587 117.916 99.6444 117.727C99.8333 117.535 99.9758 117.325 100.072 117.096L100.912 117.369C100.796 117.691 100.606 117.987 100.34 118.259C100.079 118.531 99.7504 118.75 99.356 118.915C98.9649 119.078 98.5141 119.159 98.0037 119.159ZM109.996 111.364V112.134H106.352V111.364H109.996ZM107.491 109.534H108.381V117.006C108.381 117.325 108.435 117.575 108.545 117.757C108.654 117.936 108.797 118.064 108.972 118.14C109.148 118.213 109.335 118.249 109.534 118.249C109.65 118.249 109.75 118.243 109.832 118.229C109.915 118.213 109.988 118.196 110.051 118.18L110.24 118.98C110.154 119.013 110.048 119.043 109.922 119.07C109.796 119.099 109.64 119.114 109.455 119.114C109.13 119.114 108.817 119.043 108.515 118.901C108.217 118.758 107.971 118.546 107.779 118.264C107.587 117.982 107.491 117.633 107.491 117.215V109.534ZM114.892 119.159C114.233 119.159 113.649 118.992 113.142 118.657C112.638 118.322 112.244 117.86 111.959 117.27C111.674 116.677 111.531 115.992 111.531 115.217C111.531 114.434 111.674 113.747 111.959 113.153C112.244 112.557 112.638 112.093 113.142 111.761C113.649 111.427 114.233 111.259 114.892 111.259C115.552 111.259 116.133 111.427 116.637 111.761C117.141 112.096 117.535 112.56 117.82 113.153C118.109 113.747 118.253 114.434 118.253 115.217C118.253 115.992 118.11 116.677 117.825 117.27C117.54 117.86 117.144 118.322 116.637 118.657C116.133 118.992 115.552 119.159 114.892 119.159ZM114.892 118.349C115.423 118.349 115.872 118.206 116.24 117.921C116.607 117.636 116.886 117.257 117.075 116.783C117.267 116.309 117.363 115.787 117.363 115.217C117.363 114.647 117.267 114.123 117.075 113.646C116.886 113.168 116.607 112.786 116.24 112.497C115.872 112.209 115.423 112.065 114.892 112.065C114.365 112.065 113.916 112.209 113.545 112.497C113.177 112.786 112.897 113.168 112.705 113.646C112.516 114.123 112.421 114.647 112.421 115.217C112.421 115.787 112.516 116.309 112.705 116.783C112.897 117.257 113.177 117.636 113.545 117.921C113.913 118.206 114.362 118.349 114.892 118.349ZM130.044 111.364L127.255 119H126.311L123.522 111.364H124.481L126.748 117.832H126.818L129.085 111.364H130.044ZM136.628 116.082V111.364H137.513V119H136.628V117.732H136.558C136.379 118.123 136.096 118.45 135.708 118.712C135.32 118.97 134.847 119.099 134.286 119.099C133.799 119.099 133.367 118.993 132.989 118.781C132.611 118.566 132.314 118.251 132.099 117.837C131.883 117.422 131.776 116.914 131.776 116.31V111.364H132.661V116.256C132.661 116.852 132.836 117.333 133.188 117.697C133.539 118.059 133.99 118.239 134.54 118.239C134.885 118.239 135.216 118.156 135.534 117.991C135.852 117.825 136.114 117.583 136.32 117.265C136.525 116.943 136.628 116.549 136.628 116.082ZM142.943 119.159C142.231 119.159 141.614 118.993 141.094 118.662C140.573 118.327 140.171 117.865 139.886 117.275C139.604 116.682 139.463 115.999 139.463 115.227C139.463 114.458 139.604 113.775 139.886 113.178C140.171 112.578 140.563 112.109 141.064 111.771C141.568 111.43 142.149 111.259 142.809 111.259C143.223 111.259 143.623 111.335 144.007 111.488C144.392 111.637 144.736 111.867 145.041 112.179C145.349 112.487 145.593 112.877 145.772 113.347C145.951 113.815 146.04 114.368 146.04 115.008V115.445H140.075V114.665H145.136C145.136 114.174 145.036 113.733 144.837 113.342C144.642 112.948 144.368 112.636 144.017 112.408C143.669 112.179 143.266 112.065 142.809 112.065C142.325 112.065 141.899 112.194 141.531 112.452C141.163 112.711 140.875 113.052 140.666 113.477C140.461 113.901 140.356 114.365 140.353 114.869V115.336C140.353 115.942 140.457 116.473 140.666 116.927C140.878 117.378 141.178 117.727 141.566 117.976C141.954 118.224 142.413 118.349 142.943 118.349C143.304 118.349 143.621 118.292 143.893 118.18C144.168 118.067 144.398 117.916 144.584 117.727C144.773 117.535 144.915 117.325 145.011 117.096L145.852 117.369C145.736 117.691 145.545 117.987 145.28 118.259C145.018 118.531 144.69 118.75 144.295 118.915C143.904 119.078 143.454 119.159 142.943 119.159ZM152.112 114.217V115.053H147.876V114.217H152.112ZM157.342 111.364V112.134H153.698V111.364H157.342ZM154.836 109.534H155.726V117.006C155.726 117.325 155.781 117.575 155.89 117.757C156 117.936 156.142 118.064 156.318 118.14C156.494 118.213 156.681 118.249 156.88 118.249C156.996 118.249 157.095 118.243 157.178 118.229C157.261 118.213 157.334 118.196 157.397 118.18L157.586 118.98C157.5 119.013 157.394 119.043 157.268 119.07C157.142 119.099 156.986 119.114 156.8 119.114C156.475 119.114 156.162 119.043 155.861 118.901C155.562 118.758 155.317 118.546 155.125 118.264C154.933 117.982 154.836 117.633 154.836 117.215V109.534ZM162.238 119.159C161.578 119.159 160.995 118.992 160.488 118.657C159.984 118.322 159.59 117.86 159.305 117.27C159.02 116.677 158.877 115.992 158.877 115.217C158.877 114.434 159.02 113.747 159.305 113.153C159.59 112.557 159.984 112.093 160.488 111.761C160.995 111.427 161.578 111.259 162.238 111.259C162.897 111.259 163.479 111.427 163.983 111.761C164.487 112.096 164.881 112.56 165.166 113.153C165.455 113.747 165.599 114.434 165.599 115.217C165.599 115.992 165.456 116.677 165.171 117.27C164.886 117.86 164.49 118.322 163.983 118.657C163.479 118.992 162.897 119.159 162.238 119.159ZM162.238 118.349C162.768 118.349 163.217 118.206 163.585 117.921C163.953 117.636 164.232 117.257 164.42 116.783C164.613 116.309 164.709 115.787 164.709 115.217C164.709 114.647 164.613 114.123 164.42 113.646C164.232 113.168 163.953 112.786 163.585 112.497C163.217 112.209 162.768 112.065 162.238 112.065C161.711 112.065 161.262 112.209 160.891 112.497C160.523 112.786 160.243 113.168 160.05 113.646C159.862 114.123 159.767 114.647 159.767 115.217C159.767 115.787 159.862 116.309 160.05 116.783C160.243 117.257 160.523 117.636 160.891 117.921C161.259 118.206 161.708 118.349 162.238 118.349ZM169.674 119.174C169.213 119.174 168.793 119.085 168.411 118.906C168.03 118.723 167.727 118.461 167.502 118.12C167.276 117.775 167.164 117.358 167.164 116.867C167.164 116.489 167.235 116.171 167.377 115.913C167.52 115.654 167.722 115.442 167.984 115.276C168.246 115.111 168.556 114.98 168.914 114.884C169.271 114.787 169.666 114.713 170.097 114.66C170.524 114.607 170.886 114.56 171.181 114.521C171.479 114.481 171.706 114.418 171.862 114.332C172.017 114.246 172.095 114.106 172.095 113.914V113.735C172.095 113.215 171.94 112.805 171.628 112.507C171.32 112.205 170.876 112.055 170.296 112.055C169.745 112.055 169.296 112.176 168.948 112.418C168.604 112.66 168.362 112.945 168.222 113.273L167.382 112.969C167.555 112.552 167.793 112.219 168.098 111.97C168.403 111.718 168.744 111.538 169.122 111.428C169.5 111.316 169.883 111.259 170.271 111.259C170.562 111.259 170.866 111.297 171.181 111.374C171.499 111.45 171.794 111.582 172.066 111.771C172.337 111.957 172.558 112.217 172.727 112.552C172.896 112.883 172.98 113.304 172.98 113.815V119H172.095V117.792H172.041C171.935 118.017 171.777 118.236 171.568 118.448C171.36 118.66 171.098 118.834 170.783 118.97C170.468 119.106 170.098 119.174 169.674 119.174ZM169.794 118.364C170.264 118.364 170.672 118.259 171.017 118.05C171.361 117.842 171.626 117.565 171.812 117.22C172.001 116.872 172.095 116.489 172.095 116.072V114.968C172.029 115.031 171.918 115.087 171.762 115.137C171.61 115.187 171.432 115.232 171.23 115.271C171.031 115.308 170.833 115.339 170.634 115.366C170.435 115.392 170.256 115.415 170.097 115.435C169.666 115.488 169.298 115.571 168.993 115.684C168.688 115.797 168.454 115.952 168.292 116.151C168.13 116.347 168.048 116.599 168.048 116.907C168.048 117.371 168.214 117.731 168.546 117.986C168.877 118.238 169.293 118.364 169.794 118.364ZM180.465 113.039L179.655 113.268C179.575 113.039 179.462 112.832 179.317 112.646C179.171 112.461 178.98 112.313 178.745 112.204C178.513 112.094 178.224 112.04 177.88 112.04C177.363 112.04 176.939 112.162 176.607 112.408C176.276 112.653 176.11 112.969 176.11 113.357C176.11 113.685 176.223 113.952 176.448 114.158C176.677 114.36 177.028 114.521 177.502 114.64L178.655 114.923C179.295 115.079 179.774 115.326 180.092 115.664C180.414 116.002 180.574 116.426 180.574 116.937C180.574 117.368 180.455 117.75 180.216 118.085C179.978 118.42 179.645 118.683 179.217 118.876C178.793 119.065 178.301 119.159 177.741 119.159C176.995 119.159 176.38 118.992 175.896 118.657C175.412 118.319 175.102 117.832 174.966 117.195L175.817 116.987C175.926 117.441 176.14 117.784 176.458 118.016C176.779 118.248 177.202 118.364 177.726 118.364C178.312 118.364 178.781 118.233 179.133 117.971C179.484 117.706 179.66 117.374 179.66 116.977C179.66 116.668 179.557 116.41 179.351 116.201C179.146 115.989 178.834 115.833 178.417 115.734L177.169 115.435C176.506 115.276 176.015 115.024 175.697 114.68C175.379 114.335 175.22 113.907 175.22 113.397C175.22 112.976 175.334 112.607 175.563 112.288C175.792 111.967 176.107 111.715 176.508 111.533C176.909 111.35 177.366 111.259 177.88 111.259C178.579 111.259 179.138 111.418 179.555 111.737C179.976 112.051 180.279 112.486 180.465 113.039ZM185.52 111.364V112.134H181.876V111.364H185.52ZM183.014 109.534H183.904V117.006C183.904 117.325 183.959 117.575 184.068 117.757C184.178 117.936 184.32 118.064 184.496 118.14C184.671 118.213 184.859 118.249 185.058 118.249C185.174 118.249 185.273 118.243 185.356 118.229C185.439 118.213 185.512 118.196 185.575 118.18L185.763 118.98C185.677 119.013 185.571 119.043 185.445 119.07C185.319 119.099 185.164 119.114 184.978 119.114C184.653 119.114 184.34 119.043 184.038 118.901C183.74 118.758 183.495 118.546 183.303 118.264C183.11 117.982 183.014 117.633 183.014 117.215V109.534ZM190.672 111.364V112.134H186.918V111.364H190.672ZM188.091 119V110.245C188.091 109.834 188.186 109.488 188.375 109.206C188.567 108.924 188.817 108.71 189.126 108.565C189.434 108.419 189.76 108.346 190.105 108.346C190.337 108.346 190.529 108.366 190.682 108.406C190.837 108.442 190.96 108.478 191.05 108.515L190.791 109.29C190.725 109.271 190.644 109.247 190.547 109.221C190.451 109.194 190.33 109.181 190.184 109.181C189.8 109.181 189.503 109.289 189.295 109.504C189.086 109.72 188.981 110.028 188.981 110.429L188.976 119H188.091ZM192.448 119V111.364H193.338V119H192.448ZM192.9 110.051C192.718 110.051 192.562 109.99 192.433 109.867C192.304 109.741 192.239 109.59 192.239 109.415C192.239 109.239 192.304 109.09 192.433 108.967C192.562 108.841 192.718 108.778 192.9 108.778C193.083 108.778 193.238 108.841 193.368 108.967C193.497 109.09 193.561 109.239 193.561 109.415C193.561 109.59 193.497 109.741 193.368 109.867C193.238 109.99 193.083 110.051 192.9 110.051ZM198.661 119.159C197.978 119.159 197.383 118.988 196.876 118.647C196.372 118.306 195.981 117.838 195.703 117.245C195.425 116.652 195.285 115.976 195.285 115.217C195.285 114.451 195.426 113.77 195.708 113.173C195.993 112.577 196.387 112.109 196.891 111.771C197.395 111.43 197.98 111.259 198.646 111.259C199.157 111.259 199.619 111.359 200.033 111.558C200.448 111.753 200.789 112.03 201.057 112.388C201.329 112.742 201.5 113.157 201.569 113.631H200.675C200.582 113.2 200.358 112.832 200.003 112.527C199.652 112.219 199.205 112.065 198.661 112.065C198.174 112.065 197.743 112.197 197.368 112.462C196.994 112.724 196.701 113.09 196.488 113.561C196.28 114.028 196.175 114.57 196.175 115.187C196.175 115.807 196.278 116.355 196.483 116.832C196.689 117.306 196.977 117.678 197.349 117.946C197.723 118.214 198.161 118.349 198.661 118.349C198.999 118.349 199.307 118.286 199.586 118.16C199.867 118.031 200.103 117.848 200.292 117.613C200.484 117.378 200.613 117.098 200.68 116.773H201.574C201.508 117.233 201.344 117.644 201.082 118.006C200.824 118.364 200.487 118.645 200.073 118.851C199.662 119.056 199.191 119.159 198.661 119.159ZM204.714 108.818L204.649 116.082H203.774L203.71 108.818H204.714ZM204.212 119.075C204.016 119.075 203.847 119.005 203.705 118.866C203.566 118.723 203.496 118.554 203.496 118.359C203.496 118.16 203.566 117.991 203.705 117.852C203.847 117.712 204.016 117.643 204.212 117.643C204.407 117.643 204.575 117.712 204.714 117.852C204.856 117.991 204.928 118.16 204.928 118.359C204.928 118.488 204.895 118.607 204.828 118.717C204.765 118.826 204.679 118.914 204.57 118.98C204.464 119.043 204.344 119.075 204.212 119.075Z" fill="#E2E2E2" fill-opacity="0.8"/>
<path d="M23.5 82C21.6211 82 19.7844 82.5572 18.2221 83.601C16.6598 84.6449 15.4422 86.1286 14.7231 87.8645C14.0041 89.6004 13.816 91.5105 14.1825 93.3534C14.5491 95.1962 15.4539 96.8889 16.7825 98.2175C18.1111 99.5461 19.8038 100.451 21.6466 100.817C23.4895 101.184 25.3996 100.996 27.1355 100.277C28.8714 99.5578 30.3551 98.3402 31.399 96.7779C32.4428 95.2156 33 93.3789 33 91.5C32.9973 88.9813 31.9956 86.5664 30.2146 84.7854C28.4336 83.0044 26.0187 82.0027 23.5 82ZM27.6709 89.8247L22.5555 94.9401C22.4876 95.008 22.407 95.0619 22.3183 95.0987C22.2296 95.1355 22.1345 95.1544 22.0385 95.1544C21.9424 95.1544 21.8473 95.1355 21.7586 95.0987C21.6699 95.0619 21.5893 95.008 21.5214 94.9401L19.3291 92.7478C19.192 92.6107 19.115 92.4247 19.115 92.2308C19.115 92.0368 19.192 91.8509 19.3291 91.7137C19.4663 91.5766 19.6522 91.4996 19.8462 91.4996C20.0401 91.4996 20.2261 91.5766 20.3632 91.7137L22.0385 93.3899L26.6368 88.7907C26.7047 88.7228 26.7853 88.6689 26.874 88.6322C26.9627 88.5954 27.0578 88.5765 27.1538 88.5765C27.2499 88.5765 27.3449 88.5954 27.4337 88.6322C27.5224 88.6689 27.603 88.7228 27.6709 88.7907C27.7388 88.8586 27.7926 88.9392 27.8294 89.0279C27.8661 89.1166 27.885 89.2117 27.885 89.3077C27.885 89.4037 27.8661 89.4988 27.8294 89.5875C27.7926 89.6762 27.7388 89.7568 27.6709 89.8247Z" fill="#28AB70"/>
<path d="M44.3665 85.8182L47.0163 93.8324H47.1207L49.7656 85.8182H51.794L48.2045 96H45.9276L42.343 85.8182H44.3665ZM57.9228 92.7884V88.3636H59.7225V96H57.9775V94.6428H57.8979C57.7256 95.0703 57.4422 95.42 57.0478 95.6918C56.6567 95.9635 56.1744 96.0994 55.601 96.0994C55.1006 96.0994 54.6581 95.9884 54.2736 95.7663C53.8925 95.541 53.5942 95.2145 53.3787 94.7869C53.1633 94.3561 53.0556 93.8357 53.0556 93.2259V88.3636H54.8553V92.9474C54.8553 93.4313 54.9879 93.8158 55.253 94.1009C55.5182 94.3859 55.8662 94.5284 56.2971 94.5284C56.5622 94.5284 56.8191 94.4638 57.0676 94.3345C57.3162 94.2053 57.5201 94.013 57.6792 93.7578C57.8416 93.4993 57.9228 93.1761 57.9228 92.7884ZM64.9538 96.1491C64.1882 96.1491 63.527 95.9901 62.9702 95.6719C62.4167 95.3504 61.9908 94.8963 61.6925 94.3097C61.3942 93.7197 61.245 93.0253 61.245 92.2266C61.245 91.4411 61.3942 90.7517 61.6925 90.1584C61.9941 89.5618 62.415 89.0978 62.9553 88.7663C63.4955 88.4316 64.1302 88.2642 64.8594 88.2642C65.33 88.2642 65.7741 88.3404 66.1918 88.4929C66.6127 88.642 66.9839 88.8741 67.3054 89.1889C67.6302 89.5038 67.8854 89.9048 68.071 90.392C68.2566 90.8759 68.3494 91.4527 68.3494 92.1222V92.674H62.0902V91.4609H66.6243C66.621 91.1162 66.5464 90.8097 66.4006 90.5412C66.2547 90.2694 66.0509 90.0556 65.7891 89.8999C65.5305 89.7441 65.2289 89.6662 64.8842 89.6662C64.5163 89.6662 64.1932 89.7557 63.9148 89.9347C63.6364 90.1103 63.4193 90.3423 63.2635 90.6307C63.111 90.9157 63.0331 91.2289 63.0298 91.5703V92.6293C63.0298 93.0734 63.111 93.4545 63.2734 93.7727C63.4358 94.0876 63.6629 94.3295 63.9545 94.4986C64.2462 94.6643 64.5876 94.7472 64.9787 94.7472C65.2405 94.7472 65.4775 94.7107 65.6896 94.6378C65.9018 94.5616 66.0857 94.4505 66.2415 94.3047C66.3973 94.1589 66.5149 93.9782 66.5945 93.7628L68.2749 93.9517C68.1688 94.3958 67.9666 94.7836 67.6683 95.1151C67.3733 95.4432 66.9955 95.6984 66.5348 95.8807C66.0741 96.0597 65.5471 96.1491 64.9538 96.1491ZM72.9767 87.3643V85.8182H81.1003V87.3643H77.9533V96H76.1238V87.3643H72.9767ZM84.8104 96.1491C84.0646 96.1491 83.4183 95.9851 82.8714 95.657C82.3246 95.3288 81.9003 94.8698 81.5987 94.2798C81.3004 93.6899 81.1513 93.0005 81.1513 92.2116C81.1513 91.4228 81.3004 90.7318 81.5987 90.1385C81.9003 89.5452 82.3246 89.0845 82.8714 88.7564C83.4183 88.4283 84.0646 88.2642 84.8104 88.2642C85.5561 88.2642 86.2024 88.4283 86.7493 88.7564C87.2962 89.0845 87.7188 89.5452 88.017 90.1385C88.3187 90.7318 88.4695 91.4228 88.4695 92.2116C88.4695 93.0005 88.3187 93.6899 88.017 94.2798C87.7188 94.8698 87.2962 95.3288 86.7493 95.657C86.2024 95.9851 85.5561 96.1491 84.8104 96.1491ZM84.8203 94.7074C85.2247 94.7074 85.5627 94.5964 85.8345 94.3743C86.1063 94.1489 86.3085 93.8473 86.4411 93.4695C86.5769 93.0916 86.6449 92.6707 86.6449 92.2067C86.6449 91.7393 86.5769 91.3168 86.4411 90.9389C86.3085 90.5578 86.1063 90.2545 85.8345 90.0291C85.5627 89.8037 85.2247 89.6911 84.8203 89.6911C84.406 89.6911 84.0613 89.8037 83.7862 90.0291C83.5144 90.2545 83.3106 90.5578 83.1747 90.9389C83.0421 91.3168 82.9759 91.7393 82.9759 92.2067C82.9759 92.6707 83.0421 93.0916 83.1747 93.4695C83.3106 93.8473 83.5144 94.1489 83.7862 94.3743C84.0613 94.5964 84.406 94.7074 84.8203 94.7074ZM92.1944 96.1541C91.7105 96.1541 91.2747 96.0679 90.8869 95.8956C90.5024 95.7199 90.1975 95.4614 89.9721 95.12C89.7501 94.7786 89.639 94.3577 89.639 93.8572C89.639 93.4264 89.7186 93.0701 89.8777 92.7884C90.0368 92.5066 90.2538 92.2812 90.5289 92.1122C90.804 91.9432 91.1139 91.8156 91.4586 91.7294C91.8066 91.6399 92.1663 91.5753 92.5375 91.5355C92.9849 91.4891 93.3478 91.4477 93.6262 91.4112C93.9047 91.3714 94.1068 91.3118 94.2328 91.2322C94.362 91.1494 94.4267 91.0218 94.4267 90.8494V90.8196C94.4267 90.4451 94.3156 90.1551 94.0936 89.9496C93.8715 89.7441 93.5517 89.6413 93.1341 89.6413C92.6932 89.6413 92.3436 89.7375 92.085 89.9297C91.8298 90.1219 91.6575 90.349 91.568 90.6108L89.8876 90.3722C90.0202 89.9081 90.2389 89.5204 90.5439 89.2088C90.8488 88.8939 91.2217 88.6586 91.6625 88.5028C92.1033 88.3438 92.5905 88.2642 93.1241 88.2642C93.492 88.2642 93.8583 88.3073 94.2228 88.3935C94.5874 88.4796 94.9205 88.6222 95.2221 88.821C95.5237 89.0166 95.7657 89.2834 95.948 89.6214C96.1336 89.9595 96.2264 90.3821 96.2264 90.8892V96H94.4963V94.951H94.4366C94.3272 95.1631 94.1731 95.362 93.9743 95.5476C93.7787 95.7299 93.5318 95.8774 93.2335 95.9901C92.9385 96.0994 92.5922 96.1541 92.1944 96.1541ZM92.6618 94.8317C93.023 94.8317 93.3362 94.7604 93.6014 94.6179C93.8665 94.4721 94.0704 94.2798 94.2129 94.0412C94.3587 93.8026 94.4316 93.5424 94.4316 93.2607V92.3608C94.3753 92.4072 94.2792 92.4503 94.1433 92.4901C94.0107 92.5298 93.8616 92.5646 93.6958 92.5945C93.5301 92.6243 93.3661 92.6508 93.2037 92.674C93.0413 92.6972 92.9004 92.7171 92.7811 92.7337C92.5126 92.7701 92.2723 92.8298 92.0602 92.9126C91.8481 92.9955 91.6807 93.1115 91.5581 93.2607C91.4354 93.4065 91.3741 93.5954 91.3741 93.8274C91.3741 94.1589 91.4951 94.4091 91.737 94.5781C91.979 94.7472 92.2872 94.8317 92.6618 94.8317ZM104.072 90.3821L102.431 90.5611C102.385 90.3954 102.303 90.2396 102.187 90.0938C102.075 89.9479 101.922 89.8303 101.73 89.7408C101.538 89.6513 101.302 89.6065 101.024 89.6065C100.649 89.6065 100.335 89.6877 100.079 89.8501C99.8275 90.0125 99.7032 90.223 99.7065 90.4815C99.7032 90.7036 99.7844 90.8842 99.9501 91.0234C100.119 91.1626 100.398 91.277 100.785 91.3665L102.088 91.6449C102.81 91.8007 103.347 92.0476 103.699 92.3857C104.053 92.7237 104.232 93.1662 104.236 93.7131C104.232 94.1937 104.091 94.6179 103.813 94.9858C103.538 95.3504 103.155 95.6354 102.665 95.8409C102.174 96.0464 101.611 96.1491 100.974 96.1491C100.04 96.1491 99.2872 95.9536 98.7172 95.5625C98.1471 95.1681 97.8074 94.6196 97.698 93.9169L99.4529 93.7479C99.5325 94.0926 99.7015 94.3527 99.96 94.5284C100.219 94.7041 100.555 94.7919 100.969 94.7919C101.397 94.7919 101.74 94.7041 101.998 94.5284C102.26 94.3527 102.391 94.1357 102.391 93.8771C102.391 93.6584 102.307 93.4777 102.138 93.3352C101.972 93.1927 101.713 93.0833 101.362 93.0071L100.059 92.7337C99.327 92.5812 98.7851 92.3243 98.4338 91.9631C98.0824 91.5985 97.9084 91.1378 97.9118 90.581C97.9084 90.1103 98.036 89.7027 98.2946 89.358C98.5564 89.0099 98.9193 88.7415 99.3833 88.5526C99.8507 88.3603 100.389 88.2642 100.999 88.2642C101.894 88.2642 102.598 88.4548 103.112 88.8359C103.629 89.2171 103.949 89.7325 104.072 90.3821ZM109.533 88.3636V89.7557H105.143V88.3636H109.533ZM106.227 86.5341H108.026V93.7031C108.026 93.9451 108.063 94.1307 108.136 94.2599C108.212 94.3859 108.311 94.4721 108.434 94.5185C108.557 94.5649 108.693 94.5881 108.842 94.5881C108.954 94.5881 109.057 94.5798 109.15 94.5632C109.246 94.5466 109.319 94.5317 109.369 94.5185L109.672 95.9254C109.576 95.9586 109.438 95.995 109.259 96.0348C109.084 96.0746 108.868 96.0978 108.613 96.1044C108.162 96.1177 107.756 96.0497 107.395 95.9006C107.034 95.7481 106.747 95.5128 106.535 95.1946C106.326 94.8764 106.223 94.4787 106.227 94.0014V86.5341ZM114.906 88.3636V89.7557H110.392V88.3636H114.906ZM111.52 96V87.6428C111.52 87.129 111.626 86.7015 111.838 86.3601C112.054 86.0187 112.342 85.7635 112.703 85.5945C113.065 85.4254 113.466 85.3409 113.907 85.3409C114.218 85.3409 114.495 85.3658 114.737 85.4155C114.979 85.4652 115.158 85.5099 115.274 85.5497L114.916 86.9418C114.84 86.9186 114.743 86.8954 114.627 86.8722C114.511 86.8456 114.382 86.8324 114.24 86.8324C113.905 86.8324 113.668 86.9136 113.529 87.076C113.393 87.2351 113.325 87.4638 113.325 87.7621V96H111.52ZM116.315 96V88.3636H118.115V96H116.315ZM117.22 87.2798C116.935 87.2798 116.69 87.1854 116.484 86.9964C116.279 86.8042 116.176 86.5739 116.176 86.3054C116.176 86.0336 116.279 85.8033 116.484 85.6143C116.69 85.4221 116.935 85.326 117.22 85.326C117.509 85.326 117.754 85.4221 117.956 85.6143C118.161 85.8033 118.264 86.0336 118.264 86.3054C118.264 86.5739 118.161 86.8042 117.956 86.9964C117.754 87.1854 117.509 87.2798 117.22 87.2798ZM123.297 96.1491C122.534 96.1491 121.88 95.9818 121.333 95.647C120.789 95.3123 120.37 94.8499 120.075 94.2599C119.783 93.6667 119.638 92.9839 119.638 92.2116C119.638 91.4361 119.787 90.7517 120.085 90.1584C120.383 89.5618 120.804 89.0978 121.348 88.7663C121.895 88.4316 122.541 88.2642 123.287 88.2642C123.907 88.2642 124.455 88.3786 124.932 88.6072C125.413 88.8326 125.796 89.1525 126.081 89.5668C126.366 89.9777 126.528 90.4583 126.568 91.0085H124.848C124.778 90.6406 124.613 90.334 124.351 90.0888C124.092 89.8402 123.746 89.7159 123.312 89.7159C122.944 89.7159 122.621 89.8153 122.342 90.0142C122.064 90.2098 121.847 90.4915 121.691 90.8594C121.538 91.2273 121.462 91.6681 121.462 92.1818C121.462 92.7022 121.538 93.1496 121.691 93.5241C121.843 93.8954 122.057 94.1821 122.332 94.3842C122.611 94.5831 122.937 94.6825 123.312 94.6825C123.577 94.6825 123.814 94.6328 124.023 94.5334C124.235 94.4306 124.412 94.2831 124.555 94.0909C124.697 93.8987 124.795 93.665 124.848 93.3899H126.568C126.525 93.9302 126.366 94.4091 126.091 94.8267C125.816 95.241 125.441 95.5658 124.967 95.8011C124.493 96.0331 123.936 96.1491 123.297 96.1491Z" fill="#E2E2E2"/>
<path d="M285.868 94.2314C285.91 94.2732 285.943 94.3229 285.966 94.3775C285.988 94.4321 286 94.4907 286 94.5498C286 94.6089 285.988 94.6674 285.966 94.7221C285.943 94.7767 285.91 94.8263 285.868 94.8681C285.826 94.9099 285.777 94.9431 285.722 94.9657C285.667 94.9884 285.609 95 285.55 95C285.491 95 285.432 94.9884 285.377 94.9657C285.323 94.9431 285.273 94.9099 285.231 94.8681L281.5 91.1362L277.769 94.8681C277.684 94.9526 277.57 95 277.45 95C277.331 95 277.216 94.9526 277.132 94.8681C277.047 94.7837 277 94.6692 277 94.5498C277 94.4304 277.047 94.3159 277.132 94.2314L280.864 90.5L277.132 86.7686C277.047 86.6841 277 86.5696 277 86.4502C277 86.3308 277.047 86.2163 277.132 86.1319C277.216 86.0474 277.331 86 277.45 86C277.57 86 277.684 86.0474 277.769 86.1319L281.5 89.8638L285.231 86.1319C285.316 86.0474 285.43 86 285.55 86C285.669 86 285.784 86.0474 285.868 86.1319C285.953 86.2163 286 86.3308 286 86.4502C286 86.5696 285.953 86.6841 285.868 86.7686L282.136 90.5L285.868 94.2314Z" fill="#E2E2E2" fill-opacity="0.8"/>
<rect x="0.5" y="140.5" width="301" height="59" rx="10.5" stroke="#1C1C1F"/>
<rect x="1" y="141" width="300" height="58" rx="10" fill="#0A0A0A"/>
<path d="M45.1222 189L42.3331 178.818H43.2777L45.5845 187.573H45.6641L47.9709 178.818H49.0447L51.3516 187.573H51.4311L53.7379 178.818H54.6875L51.8984 189H50.9041L48.5426 180.364H48.478L46.1165 189H45.1222ZM58.5604 189.159C57.8478 189.159 57.2313 188.993 56.7109 188.662C56.1906 188.327 55.7879 187.865 55.5028 187.275C55.2211 186.682 55.0803 185.999 55.0803 185.227C55.0803 184.458 55.2211 183.775 55.5028 183.178C55.7879 182.578 56.1806 182.109 56.6811 181.771C57.1849 181.43 57.7666 181.259 58.4261 181.259C58.8404 181.259 59.2398 181.335 59.6243 181.488C60.0088 181.637 60.3535 181.867 60.6584 182.179C60.9666 182.487 61.2102 182.877 61.3892 183.347C61.5682 183.815 61.6577 184.368 61.6577 185.008V185.445H55.6918V184.665H60.7528C60.7528 184.174 60.6534 183.733 60.4545 183.342C60.259 182.948 59.9856 182.636 59.6342 182.408C59.2862 182.179 58.8835 182.065 58.4261 182.065C57.9422 182.065 57.5163 182.194 57.1484 182.452C56.7805 182.711 56.4922 183.052 56.2834 183.477C56.0779 183.901 55.9735 184.365 55.9702 184.869V185.336C55.9702 185.942 56.0746 186.473 56.2834 186.927C56.4955 187.378 56.7955 187.727 57.1832 187.976C57.571 188.224 58.0301 188.349 58.5604 188.349C58.9216 188.349 59.2382 188.292 59.5099 188.18C59.785 188.067 60.0154 187.916 60.201 187.727C60.3899 187.535 60.5324 187.325 60.6286 187.096L61.4688 187.369C61.3527 187.691 61.1622 187.987 60.897 188.259C60.6352 188.531 60.3071 188.75 59.9126 188.915C59.5215 189.078 59.0708 189.159 58.5604 189.159ZM64.4927 178.818V189H63.6078V178.818H64.4927ZM69.8173 189.159C69.1345 189.159 68.5396 188.988 68.0325 188.647C67.5287 188.306 67.1376 187.838 66.8592 187.245C66.5808 186.652 66.4416 185.976 66.4416 185.217C66.4416 184.451 66.5824 183.77 66.8642 183.173C67.1492 182.577 67.5436 182.109 68.0474 181.771C68.5512 181.43 69.1362 181.259 69.8024 181.259C70.3128 181.259 70.7752 181.359 71.1895 181.558C71.6038 181.753 71.9451 182.03 72.2136 182.388C72.4854 182.742 72.6561 183.157 72.7257 183.631H71.8308C71.738 183.2 71.5143 182.832 71.1596 182.527C70.8083 182.219 70.3609 182.065 69.8173 182.065C69.3301 182.065 68.8992 182.197 68.5247 182.462C68.1502 182.724 67.8568 183.09 67.6447 183.561C67.4359 184.028 67.3315 184.57 67.3315 185.187C67.3315 185.807 67.4342 186.355 67.6397 186.832C67.8452 187.306 68.1336 187.678 68.5048 187.946C68.8793 188.214 69.3168 188.349 69.8173 188.349C70.1554 188.349 70.4636 188.286 70.742 188.16C71.0237 188.031 71.2591 187.848 71.448 187.613C71.6402 187.378 71.7695 187.098 71.8358 186.773H72.7306C72.6644 187.233 72.5003 187.644 72.2385 188.006C71.9799 188.364 71.6435 188.645 71.2292 188.851C70.8182 189.056 70.3476 189.159 69.8173 189.159ZM77.5953 189.159C76.9358 189.159 76.3525 188.992 75.8453 188.657C75.3416 188.322 74.9471 187.86 74.6621 187.27C74.3771 186.677 74.2346 185.992 74.2346 185.217C74.2346 184.434 74.3771 183.747 74.6621 183.153C74.9471 182.557 75.3416 182.093 75.8453 181.761C76.3525 181.427 76.9358 181.259 77.5953 181.259C78.2549 181.259 78.8366 181.427 79.3404 181.761C79.8442 182.096 80.2386 182.56 80.5236 183.153C80.812 183.747 80.9561 184.434 80.9561 185.217C80.9561 185.992 80.8136 186.677 80.5286 187.27C80.2435 187.86 79.8475 188.322 79.3404 188.657C78.8366 188.992 78.2549 189.159 77.5953 189.159ZM77.5953 188.349C78.1257 188.349 78.5748 188.206 78.9426 187.921C79.3105 187.636 79.589 187.257 79.7779 186.783C79.9701 186.309 80.0662 185.787 80.0662 185.217C80.0662 184.647 79.9701 184.123 79.7779 183.646C79.589 183.168 79.3105 182.786 78.9426 182.497C78.5748 182.209 78.1257 182.065 77.5953 182.065C77.0684 182.065 76.6193 182.209 76.248 182.497C75.8801 182.786 75.6001 183.168 75.4078 183.646C75.2189 184.123 75.1245 184.647 75.1245 185.217C75.1245 185.787 75.2189 186.309 75.4078 186.783C75.6001 187.257 75.8801 187.636 76.248 187.921C76.6159 188.206 77.065 188.349 77.5953 188.349ZM82.8988 189V181.364H83.7589V182.537H83.8384C83.9909 182.143 84.2444 181.833 84.5991 181.607C84.957 181.379 85.3862 181.264 85.8867 181.264C86.4137 181.264 86.8462 181.388 87.1843 181.637C87.5257 181.882 87.7809 182.22 87.9499 182.651H88.0146C88.1869 182.227 88.467 181.891 88.8548 181.642C89.2459 181.39 89.7198 181.264 90.2766 181.264C90.9859 181.264 91.546 181.488 91.957 181.935C92.368 182.379 92.5735 183.029 92.5735 183.884V189H91.6886V183.884C91.6886 183.281 91.5344 182.829 91.2262 182.527C90.918 182.225 90.512 182.075 90.0082 182.075C89.4248 182.075 88.9757 182.254 88.6609 182.612C88.346 182.969 88.1886 183.424 88.1886 183.974V189H87.2837V183.805C87.2837 183.288 87.1396 182.87 86.8512 182.552C86.5629 182.234 86.1568 182.075 85.6332 182.075C85.2818 182.075 84.9653 182.161 84.6836 182.333C84.4052 182.505 84.1848 182.746 84.0224 183.054C83.8633 183.359 83.7837 183.71 83.7837 184.108V189H82.8988ZM98.0037 189.159C97.2911 189.159 96.6747 188.993 96.1543 188.662C95.6339 188.327 95.2312 187.865 94.9462 187.275C94.6645 186.682 94.5236 185.999 94.5236 185.227C94.5236 184.458 94.6645 183.775 94.9462 183.178C95.2312 182.578 95.624 182.109 96.1245 181.771C96.6283 181.43 97.2099 181.259 97.8695 181.259C98.2838 181.259 98.6832 181.335 99.0676 181.488C99.4521 181.637 99.7968 181.867 100.102 182.179C100.41 182.487 100.654 182.877 100.833 183.347C101.012 183.815 101.101 184.368 101.101 185.008V185.445H95.1351V184.665H100.196C100.196 184.174 100.097 183.733 99.8979 183.342C99.7024 182.948 99.4289 182.636 99.0776 182.408C98.7296 182.179 98.3269 182.065 97.8695 182.065C97.3856 182.065 96.9597 182.194 96.5918 182.452C96.2239 182.711 95.9355 183.052 95.7267 183.477C95.5212 183.901 95.4168 184.365 95.4135 184.869V185.336C95.4135 185.942 95.5179 186.473 95.7267 186.927C95.9389 187.378 96.2388 187.727 96.6266 187.976C97.0144 188.224 97.4734 188.349 98.0037 188.349C98.365 188.349 98.6815 188.292 98.9533 188.18C99.2284 188.067 99.4587 187.916 99.6444 187.727C99.8333 187.535 99.9758 187.325 100.072 187.096L100.912 187.369C100.796 187.691 100.606 187.987 100.34 188.259C100.079 188.531 99.7504 188.75 99.356 188.915C98.9649 189.078 98.5141 189.159 98.0037 189.159ZM109.996 181.364V182.134H106.352V181.364H109.996ZM107.491 179.534H108.381V187.006C108.381 187.325 108.435 187.575 108.545 187.757C108.654 187.936 108.797 188.064 108.972 188.14C109.148 188.213 109.335 188.249 109.534 188.249C109.65 188.249 109.75 188.243 109.832 188.229C109.915 188.213 109.988 188.196 110.051 188.18L110.24 188.98C110.154 189.013 110.048 189.043 109.922 189.07C109.796 189.099 109.64 189.114 109.455 189.114C109.13 189.114 108.817 189.043 108.515 188.901C108.217 188.758 107.971 188.546 107.779 188.264C107.587 187.982 107.491 187.633 107.491 187.215V179.534ZM114.892 189.159C114.233 189.159 113.649 188.992 113.142 188.657C112.638 188.322 112.244 187.86 111.959 187.27C111.674 186.677 111.531 185.992 111.531 185.217C111.531 184.434 111.674 183.747 111.959 183.153C112.244 182.557 112.638 182.093 113.142 181.761C113.649 181.427 114.233 181.259 114.892 181.259C115.552 181.259 116.133 181.427 116.637 181.761C117.141 182.096 117.535 182.56 117.82 183.153C118.109 183.747 118.253 184.434 118.253 185.217C118.253 185.992 118.11 186.677 117.825 187.27C117.54 187.86 117.144 188.322 116.637 188.657C116.133 188.992 115.552 189.159 114.892 189.159ZM114.892 188.349C115.423 188.349 115.872 188.206 116.24 187.921C116.607 187.636 116.886 187.257 117.075 186.783C117.267 186.309 117.363 185.787 117.363 185.217C117.363 184.647 117.267 184.123 117.075 183.646C116.886 183.168 116.607 182.786 116.24 182.497C115.872 182.209 115.423 182.065 114.892 182.065C114.365 182.065 113.916 182.209 113.545 182.497C113.177 182.786 112.897 183.168 112.705 183.646C112.516 184.123 112.421 184.647 112.421 185.217C112.421 185.787 112.516 186.309 112.705 186.783C112.897 187.257 113.177 187.636 113.545 187.921C113.913 188.206 114.362 188.349 114.892 188.349ZM130.044 181.364L127.255 189H126.311L123.522 181.364H124.481L126.748 187.832H126.818L129.085 181.364H130.044ZM136.628 186.082V181.364H137.513V189H136.628V187.732H136.558C136.379 188.123 136.096 188.45 135.708 188.712C135.32 188.97 134.847 189.099 134.286 189.099C133.799 189.099 133.367 188.993 132.989 188.781C132.611 188.566 132.314 188.251 132.099 187.837C131.883 187.422 131.776 186.914 131.776 186.31V181.364H132.661V186.256C132.661 186.852 132.836 187.333 133.188 187.697C133.539 188.059 133.99 188.239 134.54 188.239C134.885 188.239 135.216 188.156 135.534 187.991C135.852 187.825 136.114 187.583 136.32 187.265C136.525 186.943 136.628 186.549 136.628 186.082ZM142.943 189.159C142.231 189.159 141.614 188.993 141.094 188.662C140.573 188.327 140.171 187.865 139.886 187.275C139.604 186.682 139.463 185.999 139.463 185.227C139.463 184.458 139.604 183.775 139.886 183.178C140.171 182.578 140.563 182.109 141.064 181.771C141.568 181.43 142.149 181.259 142.809 181.259C143.223 181.259 143.623 181.335 144.007 181.488C144.392 181.637 144.736 181.867 145.041 182.179C145.349 182.487 145.593 182.877 145.772 183.347C145.951 183.815 146.04 184.368 146.04 185.008V185.445H140.075V184.665H145.136C145.136 184.174 145.036 183.733 144.837 183.342C144.642 182.948 144.368 182.636 144.017 182.408C143.669 182.179 143.266 182.065 142.809 182.065C142.325 182.065 141.899 182.194 141.531 182.452C141.163 182.711 140.875 183.052 140.666 183.477C140.461 183.901 140.356 184.365 140.353 184.869V185.336C140.353 185.942 140.457 186.473 140.666 186.927C140.878 187.378 141.178 187.727 141.566 187.976C141.954 188.224 142.413 188.349 142.943 188.349C143.304 188.349 143.621 188.292 143.893 188.18C144.168 188.067 144.398 187.916 144.584 187.727C144.773 187.535 144.915 187.325 145.011 187.096L145.852 187.369C145.736 187.691 145.545 187.987 145.28 188.259C145.018 188.531 144.69 188.75 144.295 188.915C143.904 189.078 143.454 189.159 142.943 189.159ZM152.112 184.217V185.053H147.876V184.217H152.112ZM157.342 181.364V182.134H153.698V181.364H157.342ZM154.836 179.534H155.726V187.006C155.726 187.325 155.781 187.575 155.89 187.757C156 187.936 156.142 188.064 156.318 188.14C156.494 188.213 156.681 188.249 156.88 188.249C156.996 188.249 157.095 188.243 157.178 188.229C157.261 188.213 157.334 188.196 157.397 188.18L157.586 188.98C157.5 189.013 157.394 189.043 157.268 189.07C157.142 189.099 156.986 189.114 156.8 189.114C156.475 189.114 156.162 189.043 155.861 188.901C155.562 188.758 155.317 188.546 155.125 188.264C154.933 187.982 154.836 187.633 154.836 187.215V179.534ZM162.238 189.159C161.578 189.159 160.995 188.992 160.488 188.657C159.984 188.322 159.59 187.86 159.305 187.27C159.02 186.677 158.877 185.992 158.877 185.217C158.877 184.434 159.02 183.747 159.305 183.153C159.59 182.557 159.984 182.093 160.488 181.761C160.995 181.427 161.578 181.259 162.238 181.259C162.897 181.259 163.479 181.427 163.983 181.761C164.487 182.096 164.881 182.56 165.166 183.153C165.455 183.747 165.599 184.434 165.599 185.217C165.599 185.992 165.456 186.677 165.171 187.27C164.886 187.86 164.49 188.322 163.983 188.657C163.479 188.992 162.897 189.159 162.238 189.159ZM162.238 188.349C162.768 188.349 163.217 188.206 163.585 187.921C163.953 187.636 164.232 187.257 164.42 186.783C164.613 186.309 164.709 185.787 164.709 185.217C164.709 184.647 164.613 184.123 164.42 183.646C164.232 183.168 163.953 182.786 163.585 182.497C163.217 182.209 162.768 182.065 162.238 182.065C161.711 182.065 161.262 182.209 160.891 182.497C160.523 182.786 160.243 183.168 160.05 183.646C159.862 184.123 159.767 184.647 159.767 185.217C159.767 185.787 159.862 186.309 160.05 186.783C160.243 187.257 160.523 187.636 160.891 187.921C161.259 188.206 161.708 188.349 162.238 188.349ZM169.674 189.174C169.213 189.174 168.793 189.085 168.411 188.906C168.03 188.723 167.727 188.461 167.502 188.12C167.276 187.775 167.164 187.358 167.164 186.867C167.164 186.489 167.235 186.171 167.377 185.913C167.52 185.654 167.722 185.442 167.984 185.276C168.246 185.111 168.556 184.98 168.914 184.884C169.271 184.787 169.666 184.713 170.097 184.66C170.524 184.607 170.886 184.56 171.181 184.521C171.479 184.481 171.706 184.418 171.862 184.332C172.017 184.246 172.095 184.106 172.095 183.914V183.735C172.095 183.215 171.94 182.805 171.628 182.507C171.32 182.205 170.876 182.055 170.296 182.055C169.745 182.055 169.296 182.176 168.948 182.418C168.604 182.66 168.362 182.945 168.222 183.273L167.382 182.969C167.555 182.552 167.793 182.219 168.098 181.97C168.403 181.718 168.744 181.538 169.122 181.428C169.5 181.316 169.883 181.259 170.271 181.259C170.562 181.259 170.866 181.297 171.181 181.374C171.499 181.45 171.794 181.582 172.066 181.771C172.337 181.957 172.558 182.217 172.727 182.552C172.896 182.883 172.98 183.304 172.98 183.815V189H172.095V187.792H172.041C171.935 188.017 171.777 188.236 171.568 188.448C171.36 188.66 171.098 188.834 170.783 188.97C170.468 189.106 170.098 189.174 169.674 189.174ZM169.794 188.364C170.264 188.364 170.672 188.259 171.017 188.05C171.361 187.842 171.626 187.565 171.812 187.22C172.001 186.872 172.095 186.489 172.095 186.072V184.968C172.029 185.031 171.918 185.087 171.762 185.137C171.61 185.187 171.432 185.232 171.23 185.271C171.031 185.308 170.833 185.339 170.634 185.366C170.435 185.392 170.256 185.415 170.097 185.435C169.666 185.488 169.298 185.571 168.993 185.684C168.688 185.797 168.454 185.952 168.292 186.151C168.13 186.347 168.048 186.599 168.048 186.907C168.048 187.371 168.214 187.731 168.546 187.986C168.877 188.238 169.293 188.364 169.794 188.364ZM180.465 183.039L179.655 183.268C179.575 183.039 179.462 182.832 179.317 182.646C179.171 182.461 178.98 182.313 178.745 182.204C178.513 182.094 178.224 182.04 177.88 182.04C177.363 182.04 176.939 182.162 176.607 182.408C176.276 182.653 176.11 182.969 176.11 183.357C176.11 183.685 176.223 183.952 176.448 184.158C176.677 184.36 177.028 184.521 177.502 184.64L178.655 184.923C179.295 185.079 179.774 185.326 180.092 185.664C180.414 186.002 180.574 186.426 180.574 186.937C180.574 187.368 180.455 187.75 180.216 188.085C179.978 188.42 179.645 188.683 179.217 188.876C178.793 189.065 178.301 189.159 177.741 189.159C176.995 189.159 176.38 188.992 175.896 188.657C175.412 188.319 175.102 187.832 174.966 187.195L175.817 186.987C175.926 187.441 176.14 187.784 176.458 188.016C176.779 188.248 177.202 188.364 177.726 188.364C178.312 188.364 178.781 188.233 179.133 187.971C179.484 187.706 179.66 187.374 179.66 186.977C179.66 186.668 179.557 186.41 179.351 186.201C179.146 185.989 178.834 185.833 178.417 185.734L177.169 185.435C176.506 185.276 176.015 185.024 175.697 184.68C175.379 184.335 175.22 183.907 175.22 183.397C175.22 182.976 175.334 182.607 175.563 182.288C175.792 181.967 176.107 181.715 176.508 181.533C176.909 181.35 177.366 181.259 177.88 181.259C178.579 181.259 179.138 181.418 179.555 181.737C179.976 182.051 180.279 182.486 180.465 183.039ZM185.52 181.364V182.134H181.876V181.364H185.52ZM183.014 179.534H183.904V187.006C183.904 187.325 183.959 187.575 184.068 187.757C184.178 187.936 184.32 188.064 184.496 188.14C184.671 188.213 184.859 188.249 185.058 188.249C185.174 188.249 185.273 188.243 185.356 188.229C185.439 188.213 185.512 188.196 185.575 188.18L185.763 188.98C185.677 189.013 185.571 189.043 185.445 189.07C185.319 189.099 185.164 189.114 184.978 189.114C184.653 189.114 184.34 189.043 184.038 188.901C183.74 188.758 183.495 188.546 183.303 188.264C183.11 187.982 183.014 187.633 183.014 187.215V179.534ZM190.672 181.364V182.134H186.918V181.364H190.672ZM188.091 189V180.245C188.091 179.834 188.186 179.488 188.375 179.206C188.567 178.924 188.817 178.71 189.126 178.565C189.434 178.419 189.76 178.346 190.105 178.346C190.337 178.346 190.529 178.366 190.682 178.406C190.837 178.442 190.96 178.478 191.05 178.515L190.791 179.29C190.725 179.271 190.644 179.247 190.547 179.221C190.451 179.194 190.33 179.181 190.184 179.181C189.8 179.181 189.503 179.289 189.295 179.504C189.086 179.72 188.981 180.028 188.981 180.429L188.976 189H188.091ZM192.448 189V181.364H193.338V189H192.448ZM192.9 180.051C192.718 180.051 192.562 179.99 192.433 179.867C192.304 179.741 192.239 179.59 192.239 179.415C192.239 179.239 192.304 179.09 192.433 178.967C192.562 178.841 192.718 178.778 192.9 178.778C193.083 178.778 193.238 178.841 193.368 178.967C193.497 179.09 193.561 179.239 193.561 179.415C193.561 179.59 193.497 179.741 193.368 179.867C193.238 179.99 193.083 180.051 192.9 180.051ZM198.661 189.159C197.978 189.159 197.383 188.988 196.876 188.647C196.372 188.306 195.981 187.838 195.703 187.245C195.425 186.652 195.285 185.976 195.285 185.217C195.285 184.451 195.426 183.77 195.708 183.173C195.993 182.577 196.387 182.109 196.891 181.771C197.395 181.43 197.98 181.259 198.646 181.259C199.157 181.259 199.619 181.359 200.033 181.558C200.448 181.753 200.789 182.03 201.057 182.388C201.329 182.742 201.5 183.157 201.569 183.631H200.675C200.582 183.2 200.358 182.832 200.003 182.527C199.652 182.219 199.205 182.065 198.661 182.065C198.174 182.065 197.743 182.197 197.368 182.462C196.994 182.724 196.701 183.09 196.488 183.561C196.28 184.028 196.175 184.57 196.175 185.187C196.175 185.807 196.278 186.355 196.483 186.832C196.689 187.306 196.977 187.678 197.349 187.946C197.723 188.214 198.161 188.349 198.661 188.349C198.999 188.349 199.307 188.286 199.586 188.16C199.867 188.031 200.103 187.848 200.292 187.613C200.484 187.378 200.613 187.098 200.68 186.773H201.574C201.508 187.233 201.344 187.644 201.082 188.006C200.824 188.364 200.487 188.645 200.073 188.851C199.662 189.056 199.191 189.159 198.661 189.159ZM204.714 178.818L204.649 186.082H203.774L203.71 178.818H204.714ZM204.212 189.075C204.016 189.075 203.847 189.005 203.705 188.866C203.566 188.723 203.496 188.554 203.496 188.359C203.496 188.16 203.566 187.991 203.705 187.852C203.847 187.712 204.016 187.643 204.212 187.643C204.407 187.643 204.575 187.712 204.714 187.852C204.856 187.991 204.928 188.16 204.928 188.359C204.928 188.488 204.895 188.607 204.828 188.717C204.765 188.826 204.679 188.914 204.57 188.98C204.464 189.043 204.344 189.075 204.212 189.075Z" fill="#E2E2E2" fill-opacity="0.8"/>
<path d="M23.5 152C21.6211 152 19.7844 152.557 18.2221 153.601C16.6598 154.645 15.4422 156.129 14.7231 157.865C14.0041 159.6 13.816 161.511 14.1825 163.353C14.5491 165.196 15.4539 166.889 16.7825 168.218C18.1111 169.546 19.8038 170.451 21.6466 170.817C23.4895 171.184 25.3996 170.996 27.1355 170.277C28.8714 169.558 30.3551 168.34 31.399 166.778C32.4428 165.216 33 163.379 33 161.5C32.9973 158.981 31.9956 156.566 30.2146 154.785C28.4336 153.004 26.0187 152.003 23.5 152ZM27.6709 159.825L22.5555 164.94C22.4876 165.008 22.407 165.062 22.3183 165.099C22.2296 165.135 22.1345 165.154 22.0385 165.154C21.9424 165.154 21.8473 165.135 21.7586 165.099C21.6699 165.062 21.5893 165.008 21.5214 164.94L19.3291 162.748C19.192 162.611 19.115 162.425 19.115 162.231C19.115 162.037 19.192 161.851 19.3291 161.714C19.4663 161.577 19.6522 161.5 19.8462 161.5C20.0401 161.5 20.2261 161.577 20.3632 161.714L22.0385 163.39L26.6368 158.791C26.7047 158.723 26.7853 158.669 26.874 158.632C26.9627 158.595 27.0578 158.577 27.1538 158.577C27.2499 158.577 27.3449 158.595 27.4337 158.632C27.5224 158.669 27.603 158.723 27.6709 158.791C27.7388 158.859 27.7926 158.939 27.8294 159.028C27.8661 159.117 27.885 159.212 27.885 159.308C27.885 159.404 27.8661 159.499 27.8294 159.587C27.7926 159.676 27.7388 159.757 27.6709 159.825Z" fill="#28AB70"/>
<path d="M44.3665 155.818L47.0163 163.832H47.1207L49.7656 155.818H51.794L48.2045 166H45.9276L42.343 155.818H44.3665ZM57.9228 162.788V158.364H59.7225V166H57.9775V164.643H57.8979C57.7256 165.07 57.4422 165.42 57.0478 165.692C56.6567 165.964 56.1744 166.099 55.601 166.099C55.1006 166.099 54.6581 165.988 54.2736 165.766C53.8925 165.541 53.5942 165.214 53.3787 164.787C53.1633 164.356 53.0556 163.836 53.0556 163.226V158.364H54.8553V162.947C54.8553 163.431 54.9879 163.816 55.253 164.101C55.5182 164.386 55.8662 164.528 56.2971 164.528C56.5622 164.528 56.8191 164.464 57.0676 164.335C57.3162 164.205 57.5201 164.013 57.6792 163.758C57.8416 163.499 57.9228 163.176 57.9228 162.788ZM64.9538 166.149C64.1882 166.149 63.527 165.99 62.9702 165.672C62.4167 165.35 61.9908 164.896 61.6925 164.31C61.3942 163.72 61.245 163.025 61.245 162.227C61.245 161.441 61.3942 160.752 61.6925 160.158C61.9941 159.562 62.415 159.098 62.9553 158.766C63.4955 158.432 64.1302 158.264 64.8594 158.264C65.33 158.264 65.7741 158.34 66.1918 158.493C66.6127 158.642 66.9839 158.874 67.3054 159.189C67.6302 159.504 67.8854 159.905 68.071 160.392C68.2566 160.876 68.3494 161.453 68.3494 162.122V162.674H62.0902V161.461H66.6243C66.621 161.116 66.5464 160.81 66.4006 160.541C66.2547 160.269 66.0509 160.056 65.7891 159.9C65.5305 159.744 65.2289 159.666 64.8842 159.666C64.5163 159.666 64.1932 159.756 63.9148 159.935C63.6364 160.11 63.4193 160.342 63.2635 160.631C63.111 160.916 63.0331 161.229 63.0298 161.57V162.629C63.0298 163.073 63.111 163.455 63.2734 163.773C63.4358 164.088 63.6629 164.33 63.9545 164.499C64.2462 164.664 64.5876 164.747 64.9787 164.747C65.2405 164.747 65.4775 164.711 65.6896 164.638C65.9018 164.562 66.0857 164.451 66.2415 164.305C66.3973 164.159 66.5149 163.978 66.5945 163.763L68.2749 163.952C68.1688 164.396 67.9666 164.784 67.6683 165.115C67.3733 165.443 66.9955 165.698 66.5348 165.881C66.0741 166.06 65.5471 166.149 64.9538 166.149ZM72.9767 157.364V155.818H81.1003V157.364H77.9533V166H76.1238V157.364H72.9767ZM84.8104 166.149C84.0646 166.149 83.4183 165.985 82.8714 165.657C82.3246 165.329 81.9003 164.87 81.5987 164.28C81.3004 163.69 81.1513 163 81.1513 162.212C81.1513 161.423 81.3004 160.732 81.5987 160.138C81.9003 159.545 82.3246 159.085 82.8714 158.756C83.4183 158.428 84.0646 158.264 84.8104 158.264C85.5561 158.264 86.2024 158.428 86.7493 158.756C87.2962 159.085 87.7188 159.545 88.017 160.138C88.3187 160.732 88.4695 161.423 88.4695 162.212C88.4695 163 88.3187 163.69 88.017 164.28C87.7188 164.87 87.2962 165.329 86.7493 165.657C86.2024 165.985 85.5561 166.149 84.8104 166.149ZM84.8203 164.707C85.2247 164.707 85.5627 164.596 85.8345 164.374C86.1063 164.149 86.3085 163.847 86.4411 163.469C86.5769 163.092 86.6449 162.671 86.6449 162.207C86.6449 161.739 86.5769 161.317 86.4411 160.939C86.3085 160.558 86.1063 160.254 85.8345 160.029C85.5627 159.804 85.2247 159.691 84.8203 159.691C84.406 159.691 84.0613 159.804 83.7862 160.029C83.5144 160.254 83.3106 160.558 83.1747 160.939C83.0421 161.317 82.9759 161.739 82.9759 162.207C82.9759 162.671 83.0421 163.092 83.1747 163.469C83.3106 163.847 83.5144 164.149 83.7862 164.374C84.0613 164.596 84.406 164.707 84.8203 164.707ZM92.1944 166.154C91.7105 166.154 91.2747 166.068 90.8869 165.896C90.5024 165.72 90.1975 165.461 89.9721 165.12C89.7501 164.779 89.639 164.358 89.639 163.857C89.639 163.426 89.7186 163.07 89.8777 162.788C90.0368 162.507 90.2538 162.281 90.5289 162.112C90.804 161.943 91.1139 161.816 91.4586 161.729C91.8066 161.64 92.1663 161.575 92.5375 161.536C92.9849 161.489 93.3478 161.448 93.6262 161.411C93.9047 161.371 94.1068 161.312 94.2328 161.232C94.362 161.149 94.4267 161.022 94.4267 160.849V160.82C94.4267 160.445 94.3156 160.155 94.0936 159.95C93.8715 159.744 93.5517 159.641 93.1341 159.641C92.6932 159.641 92.3436 159.737 92.085 159.93C91.8298 160.122 91.6575 160.349 91.568 160.611L89.8876 160.372C90.0202 159.908 90.2389 159.52 90.5439 159.209C90.8488 158.894 91.2217 158.659 91.6625 158.503C92.1033 158.344 92.5905 158.264 93.1241 158.264C93.492 158.264 93.8583 158.307 94.2228 158.393C94.5874 158.48 94.9205 158.622 95.2221 158.821C95.5237 159.017 95.7657 159.283 95.948 159.621C96.1336 159.96 96.2264 160.382 96.2264 160.889V166H94.4963V164.951H94.4366C94.3272 165.163 94.1731 165.362 93.9743 165.548C93.7787 165.73 93.5318 165.877 93.2335 165.99C92.9385 166.099 92.5922 166.154 92.1944 166.154ZM92.6618 164.832C93.023 164.832 93.3362 164.76 93.6014 164.618C93.8665 164.472 94.0704 164.28 94.2129 164.041C94.3587 163.803 94.4316 163.542 94.4316 163.261V162.361C94.3753 162.407 94.2792 162.45 94.1433 162.49C94.0107 162.53 93.8616 162.565 93.6958 162.594C93.5301 162.624 93.3661 162.651 93.2037 162.674C93.0413 162.697 92.9004 162.717 92.7811 162.734C92.5126 162.77 92.2723 162.83 92.0602 162.913C91.8481 162.996 91.6807 163.112 91.5581 163.261C91.4354 163.406 91.3741 163.595 91.3741 163.827C91.3741 164.159 91.4951 164.409 91.737 164.578C91.979 164.747 92.2872 164.832 92.6618 164.832ZM104.072 160.382L102.431 160.561C102.385 160.395 102.303 160.24 102.187 160.094C102.075 159.948 101.922 159.83 101.73 159.741C101.538 159.651 101.302 159.607 101.024 159.607C100.649 159.607 100.335 159.688 100.079 159.85C99.8275 160.013 99.7032 160.223 99.7065 160.482C99.7032 160.704 99.7844 160.884 99.9501 161.023C100.119 161.163 100.398 161.277 100.785 161.366L102.088 161.645C102.81 161.801 103.347 162.048 103.699 162.386C104.053 162.724 104.232 163.166 104.236 163.713C104.232 164.194 104.091 164.618 103.813 164.986C103.538 165.35 103.155 165.635 102.665 165.841C102.174 166.046 101.611 166.149 100.974 166.149C100.04 166.149 99.2872 165.954 98.7172 165.562C98.1471 165.168 97.8074 164.62 97.698 163.917L99.4529 163.748C99.5325 164.093 99.7015 164.353 99.96 164.528C100.219 164.704 100.555 164.792 100.969 164.792C101.397 164.792 101.74 164.704 101.998 164.528C102.26 164.353 102.391 164.136 102.391 163.877C102.391 163.658 102.307 163.478 102.138 163.335C101.972 163.193 101.713 163.083 101.362 163.007L100.059 162.734C99.327 162.581 98.7851 162.324 98.4338 161.963C98.0824 161.598 97.9084 161.138 97.9118 160.581C97.9084 160.11 98.036 159.703 98.2946 159.358C98.5564 159.01 98.9193 158.741 99.3833 158.553C99.8507 158.36 100.389 158.264 100.999 158.264C101.894 158.264 102.598 158.455 103.112 158.836C103.629 159.217 103.949 159.732 104.072 160.382ZM109.533 158.364V159.756H105.143V158.364H109.533ZM106.227 156.534H108.026V163.703C108.026 163.945 108.063 164.131 108.136 164.26C108.212 164.386 108.311 164.472 108.434 164.518C108.557 164.565 108.693 164.588 108.842 164.588C108.954 164.588 109.057 164.58 109.15 164.563C109.246 164.547 109.319 164.532 109.369 164.518L109.672 165.925C109.576 165.959 109.438 165.995 109.259 166.035C109.084 166.075 108.868 166.098 108.613 166.104C108.162 166.118 107.756 166.05 107.395 165.901C107.034 165.748 106.747 165.513 106.535 165.195C106.326 164.876 106.223 164.479 106.227 164.001V156.534ZM114.906 158.364V159.756H110.392V158.364H114.906ZM111.52 166V157.643C111.52 157.129 111.626 156.701 111.838 156.36C112.054 156.019 112.342 155.763 112.703 155.594C113.065 155.425 113.466 155.341 113.907 155.341C114.218 155.341 114.495 155.366 114.737 155.415C114.979 155.465 115.158 155.51 115.274 155.55L114.916 156.942C114.84 156.919 114.743 156.895 114.627 156.872C114.511 156.846 114.382 156.832 114.24 156.832C113.905 156.832 113.668 156.914 113.529 157.076C113.393 157.235 113.325 157.464 113.325 157.762V166H111.52ZM116.315 166V158.364H118.115V166H116.315ZM117.22 157.28C116.935 157.28 116.69 157.185 116.484 156.996C116.279 156.804 116.176 156.574 116.176 156.305C116.176 156.034 116.279 155.803 116.484 155.614C116.69 155.422 116.935 155.326 117.22 155.326C117.509 155.326 117.754 155.422 117.956 155.614C118.161 155.803 118.264 156.034 118.264 156.305C118.264 156.574 118.161 156.804 117.956 156.996C117.754 157.185 117.509 157.28 117.22 157.28ZM123.297 166.149C122.534 166.149 121.88 165.982 121.333 165.647C120.789 165.312 120.37 164.85 120.075 164.26C119.783 163.667 119.638 162.984 119.638 162.212C119.638 161.436 119.787 160.752 120.085 160.158C120.383 159.562 120.804 159.098 121.348 158.766C121.895 158.432 122.541 158.264 123.287 158.264C123.907 158.264 124.455 158.379 124.932 158.607C125.413 158.833 125.796 159.152 126.081 159.567C126.366 159.978 126.528 160.458 126.568 161.009H124.848C124.778 160.641 124.613 160.334 124.351 160.089C124.092 159.84 123.746 159.716 123.312 159.716C122.944 159.716 122.621 159.815 122.342 160.014C122.064 160.21 121.847 160.491 121.691 160.859C121.538 161.227 121.462 161.668 121.462 162.182C121.462 162.702 121.538 163.15 121.691 163.524C121.843 163.895 122.057 164.182 122.332 164.384C122.611 164.583 122.937 164.683 123.312 164.683C123.577 164.683 123.814 164.633 124.023 164.533C124.235 164.431 124.412 164.283 124.555 164.091C124.697 163.899 124.795 163.665 124.848 163.39H126.568C126.525 163.93 126.366 164.409 126.091 164.827C125.816 165.241 125.441 165.566 124.967 165.801C124.493 166.033 123.936 166.149 123.297 166.149Z" fill="#E2E2E2"/>
<path d="M285.868 164.231C285.91 164.273 285.943 164.323 285.966 164.377C285.988 164.432 286 164.491 286 164.55C286 164.609 285.988 164.667 285.966 164.722C285.943 164.777 285.91 164.826 285.868 164.868C285.826 164.91 285.777 164.943 285.722 164.966C285.667 164.988 285.609 165 285.55 165C285.491 165 285.432 164.988 285.377 164.966C285.323 164.943 285.273 164.91 285.231 164.868L281.5 161.136L277.769 164.868C277.684 164.953 277.57 165 277.45 165C277.331 165 277.216 164.953 277.132 164.868C277.047 164.784 277 164.669 277 164.55C277 164.43 277.047 164.316 277.132 164.231L280.864 160.5L277.132 156.769C277.047 156.684 277 156.57 277 156.45C277 156.331 277.047 156.216 277.132 156.132C277.216 156.047 277.331 156 277.45 156C277.57 156 277.684 156.047 277.769 156.132L281.5 159.864L285.231 156.132C285.316 156.047 285.43 156 285.55 156C285.669 156 285.784 156.047 285.868 156.132C285.953 156.216 286 156.331 286 156.45C286 156.57 285.953 156.684 285.868 156.769L282.136 160.5L285.868 164.231Z" fill="#E2E2E2" fill-opacity="0.8"/>
<rect x="1" y="1" width="300" height="76" rx="10" fill="url(#paint0_linear_13_77)"/>
<rect x="1" y="123" width="300" height="76" rx="10" fill="url(#paint1_linear_13_77)"/>
<defs>
<linearGradient id="paint0_linear_13_77" x1="151" y1="1" x2="151" y2="77" gradientUnits="userSpaceOnUse">
<stop offset="0.295" stop-color="#0A0A0A"/>
<stop offset="1" stop-color="#0A0A0A" stop-opacity="0"/>
</linearGradient>
<linearGradient id="paint1_linear_13_77" x1="151" y1="199" x2="151" y2="123" gradientUnits="userSpaceOnUse">
<stop offset="0.295" stop-color="#0A0A0A"/>
<stop offset="1" stop-color="#0A0A0A" stop-opacity="0"/>
</linearGradient>
</defs>
</svg>
